<svg width="279" height="60" viewBox="0 0 279 60" fill="none" xmlns="http://www.w3.org/2000/svg">
<rect x="0.5" y="0.5" width="278" height="59" rx="29.5" stroke="#E87383"/>
<path d="M60.4497 36L65.0037 23.292H66.8937L71.4477 36H69.6117L68.3337 32.346H63.5457L62.2677 36H60.4497ZM64.0137 30.87H67.8657L66.4617 26.856L65.9577 25.038H65.9217C65.7417 25.806 65.5797 26.412 65.4357 26.856L64.0137 30.87ZM73.0609 36V26.892H74.8069V30.564H76.0849L78.5689 26.892H80.5489L77.5069 31.23V31.266L80.9089 36H78.8389L76.1209 32.058H74.8069V36H73.0609ZM84.6612 36V28.386H81.4932V26.892H89.5752V28.386H86.3892V36H84.6612ZM90.8395 37.89C91.1755 38.154 91.5235 38.286 91.8835 38.286C92.6155 38.286 93.1675 37.836 93.5395 36.936L93.9895 35.892L90.1735 26.892H92.1355L94.4215 32.85L94.7635 33.948H94.7995C94.8955 33.54 94.9975 33.18 95.1055 32.868L97.3195 26.892H99.2095L94.9255 37.638C94.6615 38.334 94.2655 38.862 93.7375 39.222C93.2215 39.594 92.6335 39.78 91.9735 39.78C91.6735 39.78 91.3795 39.732 91.0915 39.636C90.8035 39.54 90.5875 39.444 90.4435 39.348L90.2275 39.222L90.8395 37.89ZM99.9553 33.516C99.9553 32.844 100.141 32.28 100.513 31.824C100.885 31.368 101.377 31.044 101.989 30.852C102.613 30.648 103.189 30.51 103.717 30.438C104.245 30.366 104.803 30.33 105.391 30.33H105.859V30.15C105.859 28.818 105.193 28.152 103.861 28.152C102.985 28.152 102.133 28.446 101.305 29.034L100.603 27.756C100.975 27.444 101.479 27.186 102.115 26.982C102.751 26.778 103.381 26.676 104.005 26.676C105.157 26.676 106.045 26.982 106.669 27.594C107.293 28.206 107.605 29.088 107.605 30.24V36H105.967V35.082L106.021 34.362H105.985C105.709 34.902 105.301 35.346 104.761 35.694C104.233 36.042 103.645 36.216 102.997 36.216C102.169 36.216 101.455 35.97 100.855 35.478C100.255 34.986 99.9553 34.332 99.9553 33.516ZM101.701 33.372C101.701 33.768 101.851 34.11 102.151 34.398C102.451 34.686 102.871 34.83 103.411 34.83C104.131 34.83 104.719 34.53 105.175 33.93C105.631 33.33 105.859 32.664 105.859 31.932V31.59H105.409C102.937 31.59 101.701 32.184 101.701 33.372ZM109.196 36.09V34.524C109.88 34.416 110.39 33.99 110.726 33.246C111.074 32.49 111.248 31.308 111.248 29.7V26.892H117.35V36H115.604V28.332H112.922V29.7C112.922 31.8 112.628 33.372 112.04 34.416C111.464 35.46 110.516 36.018 109.196 36.09ZM120.047 36V26.892H121.793V30.186H123.629C124.637 30.186 125.441 30.432 126.041 30.924C126.641 31.404 126.941 32.136 126.941 33.12C126.941 34.008 126.659 34.71 126.095 35.226C125.543 35.742 124.709 36 123.593 36H120.047ZM121.793 34.74H123.359C123.959 34.74 124.409 34.596 124.709 34.308C125.009 34.008 125.159 33.606 125.159 33.102C125.159 32.586 125.009 32.184 124.709 31.896C124.421 31.596 123.971 31.446 123.359 31.446H121.793V34.74ZM128.819 36V26.892H130.565V30.6H135.173V26.892H136.919V36H135.173V32.094H130.565V36H128.819ZM147.856 36V26.892H149.602V36H147.856ZM139.612 36V26.892H141.358V30.186H143.14C144.148 30.186 144.952 30.432 145.552 30.924C146.152 31.404 146.452 32.136 146.452 33.12C146.452 34.008 146.17 34.71 145.606 35.226C145.054 35.742 144.226 36 143.122 36H139.612ZM141.358 34.74H142.888C143.488 34.74 143.938 34.596 144.238 34.308C144.538 34.008 144.688 33.606 144.688 33.102C144.688 32.598 144.538 32.196 144.238 31.896C143.938 31.596 143.482 31.446 142.87 31.446H141.358V34.74ZM151.709 31.446C151.709 30.018 152.141 28.866 153.005 27.99C153.869 27.114 154.961 26.676 156.281 26.676C157.517 26.676 158.483 27.084 159.179 27.9C159.875 28.704 160.223 29.718 160.223 30.942C160.223 31.098 160.199 31.344 160.151 31.68H153.527C153.575 32.628 153.893 33.372 154.481 33.912C155.081 34.44 155.807 34.704 156.659 34.704C157.655 34.704 158.549 34.35 159.341 33.642L160.079 34.92C159.647 35.316 159.107 35.634 158.459 35.874C157.823 36.102 157.187 36.216 156.551 36.216C155.135 36.216 153.971 35.766 153.059 34.866C152.159 33.954 151.709 32.814 151.709 31.446ZM153.581 30.42H158.459C158.435 29.664 158.213 29.076 157.793 28.656C157.385 28.236 156.869 28.026 156.245 28.026C155.561 28.026 154.973 28.242 154.481 28.674C154.001 29.094 153.701 29.676 153.581 30.42ZM166.823 36V26.892H168.569V30.564H169.847L172.331 26.892H174.311L171.269 31.23V31.266L174.671 36H172.601L169.883 32.058H168.569V36H166.823ZM175.777 37.89C176.113 38.154 176.461 38.286 176.821 38.286C177.553 38.286 178.105 37.836 178.477 36.936L178.927 35.892L175.111 26.892H177.073L179.359 32.85L179.701 33.948H179.737C179.833 33.54 179.935 33.18 180.043 32.868L182.257 26.892H184.147L179.863 37.638C179.599 38.334 179.203 38.862 178.675 39.222C178.159 39.594 177.571 39.78 176.911 39.78C176.611 39.78 176.317 39.732 176.029 39.636C175.741 39.54 175.525 39.444 175.381 39.348L175.165 39.222L175.777 37.89ZM185.86 39.6V26.892H187.48V27.702L187.426 28.386H187.462C187.75 27.846 188.164 27.426 188.704 27.126C189.244 26.826 189.85 26.676 190.522 26.676C191.746 26.676 192.718 27.114 193.438 27.99C194.158 28.866 194.518 30.018 194.518 31.446C194.518 32.886 194.134 34.044 193.366 34.92C192.598 35.784 191.608 36.216 190.396 36.216C189.184 36.216 188.242 35.7 187.57 34.668H187.534C187.582 34.884 187.606 35.148 187.606 35.46V39.6H185.86ZM187.552 31.482C187.552 32.346 187.78 33.102 188.236 33.75C188.704 34.386 189.334 34.704 190.126 34.704C190.87 34.704 191.494 34.416 191.998 33.84C192.502 33.252 192.754 32.46 192.754 31.464C192.754 30.48 192.514 29.694 192.034 29.106C191.566 28.506 190.948 28.206 190.18 28.206C189.436 28.206 188.812 28.482 188.308 29.034C187.804 29.586 187.552 30.402 187.552 31.482ZM196.076 31.446C196.076 30.09 196.532 28.956 197.444 28.044C198.368 27.132 199.538 26.676 200.954 26.676C202.394 26.676 203.534 27.12 204.374 28.008L203.546 29.232C202.85 28.536 202.01 28.188 201.026 28.188C200.114 28.188 199.358 28.5 198.758 29.124C198.158 29.736 197.858 30.504 197.858 31.428C197.858 32.364 198.158 33.144 198.758 33.768C199.37 34.392 200.144 34.704 201.08 34.704C201.584 34.704 202.088 34.596 202.592 34.38C203.108 34.152 203.54 33.852 203.888 33.48L204.59 34.758C204.17 35.202 203.636 35.556 202.988 35.82C202.34 36.084 201.662 36.216 200.954 36.216C199.526 36.216 198.356 35.766 197.444 34.866C196.532 33.966 196.076 32.826 196.076 31.446ZM214.723 36V26.892H216.469V36H214.723ZM206.479 36V26.892H208.225V30.186H210.007C211.015 30.186 211.819 30.432 212.419 30.924C213.019 31.404 213.319 32.136 213.319 33.12C213.319 34.008 213.037 34.71 212.473 35.226C211.921 35.742 211.093 36 209.989 36H206.479ZM208.225 34.74H209.755C210.355 34.74 210.805 34.596 211.105 34.308C211.405 34.008 211.555 33.606 211.555 33.102C211.555 32.598 211.405 32.196 211.105 31.896C210.805 31.596 210.349 31.446 209.737 31.446H208.225V34.74Z" fill="#E87383"/>
</svg>
