<svg width="1920" height="1728" viewBox="0 0 1920 1728" fill="none" xmlns="http://www.w3.org/2000/svg">
<rect y="200.952" width="1921" height="1342.54" fill="#FEF8F9"/>
<path fill-rule="evenodd" clip-rule="evenodd" d="M1920 1571.31L1856 1589.86C1792 1608.41 1664 1645.5 1536 1677.96C1408 1710.42 1280 1738.24 1152 1724.33C1024 1710.42 896 1654.77 768 1626.95C640 1599.13 512 1599.13 384 1617.68C256 1636.23 128 1673.32 64 1691.87L0 1710.42V1543.49H64C128 1543.49 256 1543.49 384 1543.49C512 1543.49 640 1543.49 768 1543.49C896 1543.49 1024 1543.49 1152 1543.49C1280 1543.49 1408 1543.49 1536 1543.49C1664 1543.49 1792 1543.49 1856 1543.49H1920V1571.31Z" fill="#FEF8F9"/>
<path fill-rule="evenodd" clip-rule="evenodd" d="M-20 157.69L44.7 139.143C109.4 120.595 238.8 83.4996 368.2 51.0412C497.6 18.5827 627 -9.23882 756.4 4.67194C885.8 18.5827 1015.2 74.2258 1144.6 102.047C1274 129.869 1403.4 129.869 1532.8 111.321C1662.2 92.7734 1791.6 55.6781 1856.3 37.1304L1921 18.5827V185.512H1856.3C1791.6 185.512 1662.2 185.512 1532.8 185.512C1403.4 185.512 1274 185.512 1144.6 185.512C1015.2 185.512 885.8 185.512 756.4 185.512C627 185.512 497.6 185.512 368.2 185.512C238.8 185.512 109.4 185.512 44.7 185.512H-20V157.69Z" stroke="#4D9C8C" stroke-opacity="0.2"/>
<path fill-rule="evenodd" clip-rule="evenodd" d="M1 173.13L65 154.582C129 136.034 257 98.939 385 66.4806C513 34.0222 641 6.20063 769 20.1114C897 34.0222 1025 89.6652 1153 117.487C1281 145.308 1409 145.308 1537 126.761C1665 108.213 1793 71.1175 1857 52.5698L1921 34.0222V200.951H1857C1793 200.951 1665 200.951 1537 200.951C1409 200.951 1281 200.951 1153 200.951C1025 200.951 897 200.951 769 200.951C641 200.951 513 200.951 385 200.951C257 200.951 129 200.951 65 200.951H1V173.13Z" fill="#FEF8F9"/>
</svg>
