<svg width="146" height="127" viewBox="0 0 146 127" fill="none" xmlns="http://www.w3.org/2000/svg">
<path fill-rule="evenodd" clip-rule="evenodd" d="M31.4312 -71.471C47.9958 -86.7043 68.976 -97.2505 92.1796 -97.9548C115.409 -98.66 137.984 -88.3827 158.527 -75.3289C179.402 -62.0644 201.425 -46.5422 209.667 -23.299C217.716 -0.601866 209.199 22.8565 200.857 44.0369C193.649 62.3354 180.186 75.7643 165.644 88.4695C150.81 101.43 135.546 113.491 116.069 118.113C92.9468 123.599 65.3238 132.504 45.2061 117.045C24.9864 101.508 30.9429 70.5242 22.9216 46.5358C15.9273 25.6188 -0.268302 6.9748 1.26953 -14.351C2.9071 -37.0601 15.366 -56.697 31.4312 -71.471Z" fill="#4D9C8C" stroke="#4D9C8C"/>
</svg>
