<svg width="30" height="31" viewBox="0 0 30 31" fill="none" xmlns="http://www.w3.org/2000/svg">
<path d="M17.7485 15.0243L29.4299 3.34257C30.1901 2.58272 30.1901 1.35415 29.4299 0.594302C28.67 -0.165548 27.4415 -0.165548 26.6816 0.594302L14.9998 12.2761L3.31843 0.594302C2.55822 -0.165548 1.33001 -0.165548 0.570155 0.594302C-0.190052 1.35415 -0.190052 2.58272 0.570155 3.34257L12.2516 15.0243L0.570155 26.7061C-0.190052 27.4659 -0.190052 28.6945 0.570155 29.4544C0.948834 29.8334 1.44674 30.0238 1.94429 30.0238C2.44184 30.0238 2.93939 29.8334 3.31843 29.4544L14.9998 17.7726L26.6816 29.4544C27.0606 29.8334 27.5582 30.0238 28.0557 30.0238C28.5533 30.0238 29.0508 29.8334 29.4299 29.4544C30.1901 28.6945 30.1901 27.4659 29.4299 26.7061L17.7485 15.0243Z" fill="white"/>
</svg>
