<svg width="15" height="25" viewBox="0 0 15 25" fill="none" xmlns="http://www.w3.org/2000/svg">
<path d="M9.18805 24.9512H5.17669C4.50667 24.9512 3.96163 24.4072 3.96163 23.7385V14.7083H1.62132C0.95129 14.7083 0.40625 14.1642 0.40625 13.4956V9.6262C0.40625 8.95748 0.95129 8.41351 1.62132 8.41351H3.96163V6.47583C3.96163 4.55456 4.5661 2.91996 5.7095 1.74904C6.85806 0.572777 8.46318 -0.0488281 10.3513 -0.0488281L13.4106 -0.043869C14.0795 -0.0427246 14.6235 0.501251 14.6235 1.16882V4.76151C14.6235 5.43022 14.0787 5.9742 13.4089 5.9742L11.3491 5.97496C10.7209 5.97496 10.561 6.10066 10.5268 6.13918C10.4704 6.20308 10.4033 6.38371 10.4033 6.88248V8.41332H13.2541C13.4687 8.41332 13.6766 8.46615 13.8553 8.56571C14.2408 8.78067 14.4804 9.18713 14.4804 9.62639L14.4789 13.4958C14.4789 14.1642 13.9338 14.7081 13.2638 14.7081H10.4033V23.7385C10.4033 24.4072 9.85807 24.9512 9.18805 24.9512V24.9512ZM5.4301 23.4856H8.93464V14.0522C8.93464 13.6057 9.2987 13.2425 9.74589 13.2425H13.0104L13.0117 9.87911H9.7457C9.29851 9.87911 8.93464 9.51595 8.93464 9.06944V6.88248C8.93464 6.30989 8.99293 5.65872 9.42598 5.1693C9.94923 4.57764 10.7739 4.50935 11.3487 4.50935L13.1551 4.50859V1.42136L10.3502 1.41678C7.31576 1.41678 5.4301 3.35541 5.4301 6.47583V9.06944C5.4301 9.51576 5.06623 9.87911 4.61904 9.87911H1.87472V13.2425H4.61904C5.06623 13.2425 5.4301 13.6057 5.4301 14.0522V23.4856ZM13.4077 1.42174H13.4079H13.4077Z" fill="white"/>
</svg>
