<svg width="77" height="343" viewBox="0 0 77 343" fill="none" xmlns="http://www.w3.org/2000/svg">
<path d="M15.9996 41.2012C51.4993 0 112.5 0 112.5 0V343C112.5 343 72.4996 320.854 41.9996 244.632C11.4996 168.41 -19.5002 82.4024 15.9996 41.2012Z" fill="#4D9C8C"/>
<g opacity="0.8">
<path d="M54.5034 174H43.4966C39.9143 174 37 176.914 37 180.497V191.504C37 195.086 39.9143 198 43.4966 198H54.5036C58.0857 198 61 195.086 61 191.504V180.497C61 176.914 58.0857 174 54.5034 174V174ZM59.593 191.504C59.593 194.31 57.3098 196.593 54.5034 196.593H43.4966C40.6901 196.593 38.407 194.31 38.407 191.504V180.497C38.407 177.69 40.6901 175.407 43.4966 175.407H54.5036C57.3098 175.407 59.593 177.69 59.593 180.497V191.504Z" fill="white"/>
<path d="M48.9998 179.438C45.3813 179.438 42.4375 182.381 42.4375 186C42.4375 189.618 45.3813 192.562 48.9998 192.562C52.6183 192.562 55.5621 189.618 55.5621 186C55.5621 182.381 52.6183 179.438 48.9998 179.438ZM48.9998 191.155C46.1573 191.155 43.8445 188.843 43.8445 186C43.8445 183.157 46.1573 180.844 48.9998 180.844C51.8425 180.844 54.1551 183.157 54.1551 186C54.1551 188.843 51.8425 191.155 48.9998 191.155Z" fill="white"/>
<path d="M55.7194 177.107C54.65 177.107 53.7803 177.977 53.7803 179.047C53.7803 180.116 54.65 180.986 55.7194 180.986C56.7887 180.986 57.6586 180.116 57.6586 179.047C57.6586 177.977 56.7887 177.107 55.7194 177.107ZM55.7194 179.579C55.426 179.579 55.1873 179.34 55.1873 179.047C55.1873 178.753 55.426 178.514 55.7194 178.514C56.0129 178.514 56.2516 178.753 56.2516 179.047C56.2516 179.34 56.0129 179.579 55.7194 179.579Z" fill="white"/>
<g clip-path="url(#clip0_132:399)">
<path d="M51.188 78.9512H47.1767C46.5067 78.9512 45.9616 78.4072 45.9616 77.7385V68.7083H43.6213C42.9513 68.7083 42.4062 68.1642 42.4062 67.4956V63.6262C42.4062 62.9575 42.9513 62.4135 43.6213 62.4135H45.9616V60.4758C45.9616 58.5546 46.5661 56.92 47.7095 55.749C48.8581 54.5728 50.4632 53.9512 52.3513 53.9512L55.4106 53.9561C56.0795 53.9573 56.6235 54.5013 56.6235 55.1688V58.7615C56.6235 59.4302 56.0787 59.9742 55.4089 59.9742L53.3491 59.975C52.7209 59.975 52.561 60.1007 52.5268 60.1392C52.4704 60.2031 52.4033 60.3837 52.4033 60.8825V62.4133H55.2541C55.4687 62.4133 55.6766 62.4661 55.8553 62.5657C56.2408 62.7807 56.4804 63.1871 56.4804 63.6264L56.4789 67.4958C56.4789 68.1642 55.9338 68.7081 55.2638 68.7081H52.4033V77.7385C52.4033 78.4072 51.8581 78.9512 51.188 78.9512ZM47.4301 77.4856H50.9346V68.0522C50.9346 67.6057 51.2987 67.2425 51.7459 67.2425H55.0104L55.0117 63.8791H51.7457C51.2985 63.8791 50.9346 63.516 50.9346 63.0694V60.8825C50.9346 60.3099 50.9929 59.6587 51.426 59.1693C51.9492 58.5776 52.7739 58.5094 53.3487 58.5094L55.1551 58.5086V55.4214L52.3502 55.4168C49.3158 55.4168 47.4301 57.3554 47.4301 60.4758V63.0694C47.4301 63.5158 47.0662 63.8791 46.619 63.8791H43.8747V67.2425H46.619C47.0662 67.2425 47.4301 67.6057 47.4301 68.0522V77.4856ZM55.4077 55.4217H55.4079H55.4077Z" fill="white"/>
</g>
<g clip-path="url(#clip1_132:399)">
<path d="M53.3483 105.376L47.8252 102.354C47.5076 102.181 47.1323 102.187 46.821 102.372C46.5095 102.556 46.3237 102.882 46.3237 103.244V109.236C46.3237 109.597 46.5084 109.922 46.8177 110.107C46.9793 110.204 47.1584 110.252 47.3379 110.252C47.5023 110.252 47.6671 110.211 47.8187 110.13L53.342 107.16C53.6698 106.984 53.8745 106.643 53.876 106.27C53.8774 105.898 53.6752 105.555 53.3483 105.376ZM47.7888 108.483V104.004L51.9166 106.263L47.7888 108.483Z" fill="white"/>
<path d="M61.816 101.496L61.8149 101.485C61.7937 101.284 61.583 99.4939 60.7128 98.5835C59.7071 97.5128 58.5669 97.3827 58.0185 97.3203C57.9731 97.3152 57.9315 97.3104 57.8944 97.3054L57.8507 97.3009C54.5456 97.0605 49.5543 97.0277 49.5043 97.0275L49.5 97.0273L49.4956 97.0275C49.4456 97.0277 44.4543 97.0605 41.1195 97.3009L41.0754 97.3054C41.0399 97.3102 41.0008 97.3146 40.9583 97.3195C40.4162 97.3821 39.2882 97.5124 38.2796 98.6219C37.4509 99.5225 37.2113 101.274 37.1867 101.471L37.1839 101.496C37.1764 101.58 37 103.574 37 105.575V107.445C37 109.447 37.1764 111.44 37.1839 111.524L37.1852 111.536C37.2064 111.734 37.4169 113.492 38.2831 114.402C39.2287 115.437 40.4244 115.574 41.0676 115.648C41.1693 115.659 41.2568 115.669 41.3165 115.68L41.3743 115.688C43.2826 115.869 49.2657 115.959 49.5194 115.962L49.527 115.963L49.5347 115.962C49.5846 115.962 54.5758 115.929 57.8808 115.689L57.9245 115.685C57.9663 115.679 58.0132 115.674 58.0647 115.669C58.6037 115.612 59.7256 115.493 60.7203 114.398C61.549 113.497 61.7888 111.746 61.8132 111.549L61.816 111.524C61.8235 111.44 62.0001 109.447 62.0001 107.445V105.575C61.9999 103.574 61.8235 101.58 61.816 101.496ZM60.5349 107.445C60.5349 109.298 60.3731 111.205 60.3579 111.38C60.2957 111.863 60.043 112.971 59.6392 113.41C59.0166 114.095 58.3771 114.163 57.9102 114.212C57.8537 114.218 57.8015 114.224 57.7542 114.229C54.5575 114.461 49.7546 114.496 49.5333 114.497C49.2852 114.494 43.3896 114.404 41.5395 114.232C41.4447 114.216 41.3423 114.204 41.2343 114.192C40.6867 114.13 39.9371 114.044 39.3607 113.41L39.3472 113.395C38.9504 112.982 38.705 111.946 38.6426 111.386C38.631 111.254 38.465 109.324 38.465 107.445V105.575C38.465 103.725 38.6264 101.819 38.642 101.64C38.7162 101.072 38.9737 100.031 39.3607 99.6105C40.0023 98.9047 40.6789 98.8265 41.1263 98.7748C41.1691 98.7699 41.2089 98.7653 41.2457 98.7605C44.489 98.5282 49.3264 98.4937 49.5 98.4924C49.6735 98.4935 54.5092 98.5282 57.7236 98.7605C57.7631 98.7655 57.8062 98.7705 57.8526 98.7758C58.3128 98.8283 59.0084 98.9076 59.6468 99.5885L59.6527 99.5948C60.0495 100.008 60.2949 101.063 60.3573 101.633C60.3684 101.758 60.5349 103.693 60.5349 105.575V107.445Z" fill="white"/>
</g>
<g clip-path="url(#clip2_132:399)">
<path d="M49.651 154.312C53.2677 154.312 51.9781 152.023 52.2573 151.365C52.2531 150.873 52.249 150.4 52.2656 150.113C52.4948 150.177 53.0354 150.451 54.1521 151.536C55.876 153.276 56.3167 154.312 57.7094 154.312H60.2729C61.0854 154.312 61.5083 153.976 61.7198 153.694C61.924 153.421 62.124 152.942 61.9052 152.196C61.3333 150.4 57.9979 147.299 57.7906 146.972C57.8219 146.911 57.8719 146.831 57.8979 146.79H57.8958C58.5542 145.92 61.0667 142.155 61.4365 140.649C61.4375 140.647 61.4385 140.644 61.4385 140.641C61.6385 139.953 61.4552 139.507 61.2656 139.255C60.9802 138.878 60.526 138.688 59.9125 138.688H57.349C56.4906 138.688 55.8396 139.12 55.5104 139.908C54.9594 141.309 53.4115 144.191 52.251 145.21C52.2156 143.766 52.2396 142.662 52.2583 141.843C52.2958 140.244 52.4167 138.688 50.7573 138.688H46.7281C45.6885 138.688 44.6937 139.823 45.7708 141.171C46.7125 142.352 46.1094 143.01 46.3125 146.287C45.5208 145.439 44.1125 143.146 43.1167 140.216C42.8375 139.423 42.4146 138.689 41.224 138.689H38.6604C37.6208 138.689 37 139.255 37 140.204C37 142.335 41.7177 154.312 49.651 154.312ZM41.224 140.251C41.45 140.251 41.4729 140.251 41.6406 140.727C42.6604 143.73 44.9479 148.174 46.6187 148.174C47.874 148.174 47.874 146.887 47.874 146.403L47.8729 142.547C47.8042 141.271 47.3396 140.635 47.0344 140.25L50.6885 140.254C50.6906 140.272 50.6677 144.52 50.699 145.549C50.699 147.01 51.8594 147.848 53.6708 146.015C55.5823 143.857 56.9042 140.632 56.9573 140.501C57.0354 140.314 57.1031 140.25 57.349 140.25H59.9125H59.9229C59.9219 140.253 59.9219 140.256 59.9208 140.259C59.6865 141.353 57.3729 144.839 56.599 145.921C56.5865 145.938 56.575 145.955 56.5635 145.973C56.2229 146.529 55.9458 147.144 56.6104 148.008H56.6115C56.6719 148.081 56.8292 148.252 57.0583 148.49C57.7708 149.225 60.2146 151.74 60.4312 152.74C60.2875 152.762 60.1313 152.746 57.7094 152.751C57.1938 152.751 56.7906 151.98 55.2521 150.428C53.8687 149.082 52.9708 148.532 52.1531 148.532C50.5656 148.532 50.6812 149.821 50.6958 151.379C50.701 153.069 50.6906 152.534 50.7021 152.641C50.6094 152.677 50.3438 152.75 49.651 152.75C43.0417 152.75 38.7375 142.259 38.5719 140.254C38.6292 140.249 39.4177 140.252 41.224 140.251Z" fill="white"/>
</g>
</g>
<defs>
<clipPath id="clip0_132:399">
<rect width="25" height="25" fill="white" transform="translate(37 54)"/>
</clipPath>
<clipPath id="clip1_132:399">
<rect width="25" height="24.9999" fill="white" transform="translate(37 94)"/>
</clipPath>
<clipPath id="clip2_132:399">
<rect width="25" height="25" fill="white" transform="translate(37 134)"/>
</clipPath>
</defs>
</svg>
