<svg width="211" height="81" viewBox="0 0 211 81" fill="none" xmlns="http://www.w3.org/2000/svg">
<path d="M2.02732 77.8758C1.97939 77.4454 2.04329 77.031 2.21901 76.7281C2.36279 76.4731 2.60241 75.9312 2.76216 75.5327C2.92191 75.1342 3.19348 74.6082 3.38518 74.3372C3.57687 74.0822 3.84845 73.604 3.99222 73.3012C4.15197 72.9983 4.69511 71.8347 5.23826 70.719C5.7814 69.6032 6.21272 68.615 6.21272 68.5353C6.21272 68.4556 6.26065 68.36 6.34052 68.3281C6.40442 68.3121 6.89964 67.3877 7.44278 66.2878C7.96995 65.188 9.08819 62.8928 9.93486 61.1872C11.4365 58.1269 12.4908 55.8954 13.1138 54.4927C13.2896 54.0942 13.4972 53.6639 13.5771 53.5364C13.657 53.4088 13.7688 53.1857 13.8167 53.0582C14.0244 52.5481 14.4398 51.7033 14.5356 51.6236C14.6315 51.5439 15.6379 49.424 15.6379 49.3124C15.6379 49.2805 15.8455 48.8821 16.1011 48.4517C16.5804 47.6547 16.5804 47.6547 16.0213 47.3359C15.7177 47.1447 15.4142 47.0012 15.3503 47.0012C15.2066 47.0012 14.0883 46.4115 13.8167 46.2042C13.7209 46.1245 13.034 45.5985 12.2832 45.0566C10.7176 43.893 10.6058 43.8133 10.2384 43.4786C10.0946 43.3511 9.61536 42.9526 9.16806 42.6019C8.73674 42.2672 8.3214 41.9006 8.2575 41.8209C8.20957 41.7253 7.96995 41.4384 7.73033 41.1833C7.49071 40.9124 7.13926 40.5298 6.94756 40.3067C6.26065 39.5416 5.30216 38.1549 5.01461 37.5173C4.85486 37.1666 4.42354 36.2421 4.04014 35.4452C3.22543 33.7078 3.00178 33.0543 2.53851 30.9821C1.86757 27.874 1.61197 23.5703 1.96342 21.0679C2.10719 20.0637 2.10719 20.0637 1.67587 20.0637C1.16467 20.0637 0.22216 19.6971 0.0624113 19.4261C-0.113312 19.1551 0.110336 18.4697 0.381908 18.4697C0.509706 18.4697 0.62153 18.39 0.62153 18.2944C0.62153 18.1669 0.925052 18.135 1.62794 18.2147C2.65033 18.3103 2.65033 18.3103 2.82606 17.6887C2.93788 17.354 3.01775 16.9236 3.01775 16.7324C3.01775 16.5411 3.08165 16.2701 3.16153 16.1107C4.37562 13.6561 5.38203 11.7593 5.68555 11.3608C5.87725 11.0898 6.05297 10.787 6.05297 10.6913C6.05297 10.5798 6.13285 10.5001 6.21272 10.5001C6.30857 10.5001 6.43637 10.3725 6.48429 10.2132C6.80379 9.35242 9.34379 6.5471 10.9093 5.30382C13.8806 2.99262 18.8009 0.840802 22.0278 0.458257C22.6828 0.394499 23.6892 0.251045 24.2643 0.155409C25.5582 -0.0518029 28.4177 -0.0518029 29.3762 0.155409C29.7756 0.235106 30.6542 0.37856 31.3252 0.458257C31.9961 0.522014 32.699 0.665469 32.8747 0.761105C33.0504 0.856741 33.3859 0.936438 33.6415 0.936438C34.1048 0.952377 35.4307 1.3668 36.0377 1.70153C36.2294 1.8131 36.485 1.8928 36.6288 1.8928C36.9962 1.8928 39.648 3.26359 40.91 4.09243C41.5331 4.50686 42.188 4.92128 42.3478 5.01692C42.5235 5.11255 42.8111 5.3357 43.0028 5.4951C43.1945 5.67043 43.7216 6.08485 44.1529 6.43552C45.2712 7.31218 45.3191 7.36 46.8207 9.40024C48.3064 11.3927 49.1211 12.6997 49.6643 13.927C49.856 14.3733 50.2074 15.1544 50.447 15.6804C50.6866 16.2064 50.9742 16.828 51.07 17.083C51.2298 17.4496 51.3416 17.5134 51.9007 17.5134C52.8113 17.5134 53.1787 17.7365 53.1787 18.3263C53.1787 18.7088 53.0829 18.8363 52.5877 19.0595C52.2522 19.2189 51.9646 19.3464 51.9327 19.3623C51.9167 19.3783 51.9966 19.7927 52.1404 20.3187C52.3161 20.9882 52.38 22.072 52.38 24.2079C52.38 26.6785 52.3161 27.4595 51.9966 29.0694C51.3736 32.1617 51.2458 32.6877 50.8304 33.6121C50.6068 34.0903 50.3512 34.712 50.2393 34.967C49.7122 36.2262 48.578 38.3621 48.2105 38.7924C47.9869 39.0475 47.4597 39.7329 47.0284 40.3067C46.1498 41.4543 43.5459 44.1321 43.2903 44.1321C43.2104 44.1321 43.1146 44.1959 43.0826 44.2596C43.0028 44.4509 40.8142 45.8855 40.5906 45.8855C40.4787 45.8855 40.3989 45.9651 40.3989 46.0608C40.3989 46.1405 40.1912 46.2999 39.9196 46.3796C39.664 46.4752 39.4404 46.6187 39.4404 46.6824C39.4404 46.7462 39.2806 46.8418 39.0889 46.8896C38.8812 46.9534 38.5777 47.0809 38.418 47.2084C38.1145 47.4316 38.1145 47.4635 38.5777 48.2126C38.8493 48.643 39.4084 49.679 39.8397 50.5079C40.5426 51.8787 40.91 52.564 41.4692 53.4567C41.581 53.632 42.0283 54.4927 42.4596 55.3694C42.9069 56.246 43.5139 57.3777 43.8175 57.8878C44.3287 58.7326 45.8463 61.5379 46.9805 63.7375C47.2201 64.2157 47.4917 64.7258 47.5716 64.8533C47.6514 64.9808 48.1466 65.985 48.7058 67.0848C49.2489 68.1846 49.9678 69.6192 50.3032 70.2727C50.6387 70.9262 50.9582 71.5797 51.0061 71.7072C51.0541 71.8347 51.2458 72.1695 51.4215 72.4245C51.5972 72.6955 51.7729 73.0143 51.8368 73.1418C51.8848 73.2693 52.0285 73.5721 52.1563 73.8112C52.2841 74.0344 52.38 74.3213 52.38 74.4488C52.38 74.5604 52.6995 75.2936 53.0988 76.0906C53.5461 77.015 53.7538 77.5729 53.658 77.6686C53.4982 77.8279 48.9773 77.9236 24.9831 78.2424C18.4015 78.338 10.5419 78.4336 7.55461 78.4815C2.09121 78.5612 2.09121 78.5612 2.02732 77.8758ZM7.96995 76.1065C9.18404 75.724 9.87096 75.4849 10.9253 75.0386C11.101 74.9748 11.4205 74.8632 11.6442 74.8154C12.3471 74.6241 16.2928 72.7433 17.3152 72.1057C17.6667 71.8826 18.066 71.6594 18.1938 71.5957C18.753 71.3406 19.999 70.1611 20.5102 69.3801C21.2291 68.3121 21.293 67.292 20.6699 66.6863C19.9191 65.9372 17.3472 66.2081 15.2545 67.2761C14.5196 67.6586 13.673 68.2325 13.5931 68.4078C13.5611 68.4715 13.4333 68.5194 13.3215 68.5194C13.2097 68.5194 13.0819 68.615 13.034 68.7266C12.986 68.8222 12.6825 69.0613 12.3471 69.2366C11.6921 69.5714 11.4045 69.7945 10.2224 70.8306C9.23196 71.6913 8.30542 72.6317 7.7463 73.3012C7.49071 73.604 6.80379 74.401 6.19675 75.0545C5.06253 76.2978 4.45549 77.0469 4.45549 77.1744C4.45549 77.2063 4.93473 77.0788 5.54178 76.8875C6.13285 76.6963 7.21913 76.3456 7.96995 76.1065ZM51.0061 76.505C51.2458 76.4093 50.9263 76.0109 48.9294 73.9547C47.6195 72.6158 45.9741 71.0378 45.2712 70.464C44.5683 69.8742 43.8494 69.2526 43.6577 69.0613C42.5395 67.9137 39.4404 66.2878 38.3701 66.2878C37.6672 66.2878 36.5968 66.8776 36.2454 67.4514C35.6384 68.4397 36.1815 69.8264 37.5553 70.8306C38.8173 71.771 42.5555 73.5881 45.5108 74.7357C46.8687 75.2458 47.1562 75.3733 48.6099 76.0268C49.808 76.5687 50.4949 76.7122 51.0061 76.505ZM20.6699 74.401C20.7498 74.3213 20.9415 74.2575 21.0853 74.2575C21.4687 74.2575 23.2579 73.2055 23.9288 72.5998C24.4879 72.0898 25.702 70.4002 25.702 70.1452C25.702 70.0655 25.8138 69.7786 25.9416 69.5395C26.2452 68.9497 26.2611 66.8457 25.9576 65.9372C25.8298 65.5546 25.686 64.9968 25.6221 64.6939C25.5582 64.3911 25.4464 64.0404 25.3665 63.8969C25.1908 63.5782 24.472 61.6814 23.9927 60.3106C23.3377 58.4138 23.194 54.0942 23.7531 52.7394C23.833 52.5162 24.0087 51.9105 24.1205 51.3845C24.2323 50.8585 24.4081 50.2369 24.5358 49.9978C24.6477 49.7587 24.7435 49.3602 24.7435 49.1211C24.7595 48.8821 24.8553 48.4995 24.9831 48.2764C25.1109 48.0532 25.2068 47.7344 25.2228 47.5591C25.2228 47.3838 25.3346 47.0331 25.4624 46.7781C25.5902 46.539 25.702 46.1883 25.702 46.0289C25.702 45.8536 25.7659 45.7261 25.8458 45.7261C25.9257 45.7261 26.0375 45.3595 26.1014 44.9132C26.1653 44.4669 26.3091 43.909 26.4369 43.6858C26.5647 43.4467 26.6605 43.0482 26.6605 42.7773C26.6765 42.2353 27.1397 41.1833 27.3794 41.1833C27.4752 41.1833 27.603 41.4702 27.6829 41.8209C27.9065 42.8729 28.5935 45.1204 28.9449 45.8855C29.2644 46.6346 29.52 47.1606 30.6382 49.3443C30.9897 50.0775 31.2932 50.7948 31.2932 50.9542C31.2932 51.1136 31.405 51.4005 31.5488 51.5917C32.1558 52.4684 32.4913 56.8517 32.076 58.6369C31.9801 59.0354 31.8523 59.8165 31.7724 60.3903C31.6926 60.9641 31.5488 61.7929 31.4529 62.2233C31.0057 64.1838 30.9577 64.7258 31.0057 66.6066C31.1175 69.922 31.7724 71.4681 33.6096 72.6955C34.3444 73.1737 35.9259 73.8272 36.0537 73.6997C36.1016 73.6518 35.7342 73.2533 35.255 72.823C34.4243 72.0898 33.0504 70.3046 33.0504 69.9698C33.0504 69.8901 32.9546 69.7467 32.8268 69.6511C32.4434 69.3323 32.1718 67.4036 32.3955 66.5429C32.8108 64.8533 34.1207 63.4506 35.7342 62.9087C36.8205 62.558 37.5873 62.5421 38.8493 62.8768C40.1433 63.2115 42.9868 64.5823 43.2743 65.0127C43.3222 65.0765 43.5299 65.2199 43.7216 65.3155C43.9293 65.4271 44.3766 65.7778 44.728 66.0806C45.0795 66.3994 45.399 66.6066 45.4629 66.5588C45.5427 66.4632 44.6801 64.6939 43.6897 62.9246C43.4181 62.4465 43.0028 61.6814 42.7631 61.251C42.3957 60.5656 41.6289 59.4499 40.2072 57.6168C39.9995 57.3459 39.3605 56.6286 38.7854 56.0229C36.8205 53.9348 34.8556 51.7033 34.4722 51.1295C32.4753 48.1807 32.076 47.4635 30.6542 44.3712C29.9353 42.7932 29.4401 41.4224 29.1526 40.0676C28.9928 39.3663 28.7692 38.3461 28.6414 37.8042C28.3379 36.4334 28.3379 31.811 28.6574 30.1533C28.7852 29.4679 29.0248 28.5434 29.1845 28.1131C29.52 27.1567 30.4625 25.4831 30.798 25.2121C30.9737 25.0686 31.8683 25.0208 33.7054 25.0049C35.9099 25.0049 36.501 24.9571 37.2678 24.6861C38.402 24.3035 41.1976 22.9168 41.1976 22.7415C41.1976 22.6777 41.2934 22.614 41.4053 22.614C41.8366 22.614 41.9484 22.2952 41.8046 21.5301C41.5011 19.9521 40.8941 18.1669 40.3989 17.354C40.335 17.2265 40.0314 16.7164 39.7279 16.2382C38.37 13.9748 36.2773 11.8071 34.4083 10.7073C33.8971 10.4044 33.3859 10.0538 33.2901 9.94218C33.0664 9.65527 31.3092 9.00176 29.6478 8.58733C28.274 8.23667 26.964 8.20479 24.8234 8.47576C24.5678 8.50764 23.8489 8.58733 23.2259 8.65109C22.0278 8.77861 19.9511 9.36836 19.9511 9.57557C19.9511 9.63933 19.8712 9.70309 19.7754 9.70309C19.5038 9.70309 17.5548 10.6754 17.5548 10.8188C17.5548 10.8826 17.3791 11.0101 17.1715 11.1058C16.6123 11.3608 15.2066 12.6997 14.5516 13.6082C14.2321 14.0386 13.8487 14.5327 13.6889 14.6921C12.9062 15.4731 11.6282 18.1031 11.1489 19.984C10.9892 20.6056 10.8454 21.1794 10.8454 21.2751C10.8454 21.4345 12.2512 22.3749 12.9221 22.6777C13.0499 22.7256 13.3854 22.9168 13.641 23.0922C14.4398 23.6182 16.3088 24.4948 17.2034 24.7499C18.6411 25.1643 21.1172 25.4034 22.0278 25.228C23.0342 25.0208 23.2738 25.1643 23.8809 26.3597C24.1365 26.8379 24.3921 27.2364 24.456 27.2364C24.5199 27.2364 24.5838 27.3639 24.5838 27.5233C24.5838 27.6827 24.6317 27.874 24.6956 27.9377C24.8394 28.0812 25.1748 28.9897 25.5423 30.2968C25.7659 31.03 25.8937 32.0979 25.9576 33.644C26.0854 37.055 25.7659 39.6053 24.9192 41.9803C23.9448 44.6741 23.4176 46.1724 23.2419 46.6505C23.146 46.9215 23.0182 47.1606 22.9543 47.1606C22.9064 47.1606 22.8106 47.3678 22.7467 47.6388C22.6828 47.9098 22.5869 48.117 22.507 48.117C22.4272 48.117 22.3153 48.2764 22.2514 48.4836C22.0917 48.9936 20.8137 51.0658 20.3504 51.5599C20.1268 51.799 19.9511 52.0699 19.9511 52.1656C19.9511 52.2612 19.7913 52.5322 19.5996 52.7394C19.0725 53.3291 18.5133 54.142 18.5133 54.3174C18.5133 54.3971 18.4654 54.4927 18.4015 54.5246C18.3216 54.5565 17.7785 55.2259 17.1874 56.007C16.5804 56.8039 15.7497 57.8081 15.3343 58.2385C13.7688 59.9121 12.7624 61.4263 11.0371 64.6939C9.99876 66.6863 9.39171 67.7861 9.23196 67.9615C9.04027 68.1527 9.05624 68.36 9.24794 68.36C9.45561 68.36 10.8933 67.3558 11.6921 66.6544C12.0116 66.3675 12.379 66.1284 12.4908 66.1284C12.6027 66.1284 12.8103 65.985 12.9701 65.8097C13.1138 65.6343 13.3375 65.4909 13.4653 65.4909C13.5931 65.4909 13.7209 65.4431 13.7528 65.3793C13.8327 65.1721 14.7593 64.5664 15.7497 64.0723C17.4909 63.1797 18.0501 63.0362 19.4718 63.0203C20.606 63.0203 20.9735 63.084 21.7083 63.4347C24.5359 64.7577 25.2867 67.8021 23.4975 70.6712C23.0662 71.3725 20.9096 73.4127 19.8393 74.146C19.0405 74.6879 19.0565 74.8792 19.8393 74.7038C20.2067 74.6241 20.5741 74.4966 20.6699 74.401ZM29.1366 59.8005C29.6158 57.824 29.4082 53.9348 28.7372 52.3409C27.6509 49.7587 27.6669 49.7747 27.2036 51.2251C26.6286 53.0582 26.5008 54.0623 26.5966 55.9273C26.6765 57.6009 26.8043 58.2703 27.7148 61.8248C27.7628 62.048 27.9225 62.4783 28.0503 62.7812C28.3059 63.3231 28.3059 63.3231 28.6094 62.0639C28.7692 61.3626 29.0088 60.3425 29.1366 59.8005ZM18.1459 44.6741C19.36 42.3469 20.1108 40.8327 20.1108 40.7052C20.1108 40.5298 19.4399 40.6414 18.9606 40.9124C18.6731 41.0718 18.0341 41.3427 17.5548 41.4862C17.0756 41.6456 16.5484 41.8528 16.3887 41.9325C16.1011 42.0759 15.3503 42.2513 13.641 42.5541C12.7145 42.7295 11.0531 42.6657 10.478 42.4426C9.96681 42.2513 10.3502 42.7773 11.0531 43.2236C11.4205 43.4627 12.0435 43.9409 12.4269 44.2756C12.8103 44.6262 13.3215 44.9928 13.5452 45.1204C13.7688 45.2319 13.9925 45.3754 14.0404 45.4232C14.0883 45.471 14.5196 45.7261 14.9989 45.9811C15.4781 46.2361 15.9094 46.4911 15.9574 46.539C16.1171 46.7302 16.6762 46.9853 16.836 46.9375C16.9318 46.9215 17.5069 45.9014 18.1459 44.6741ZM38.5617 46.0927C39.1209 44.7538 37.8589 42.6338 35.7023 41.279C35.255 41.008 34.8556 40.7849 34.7917 40.7849C34.7118 40.7849 34.9834 41.3746 35.3828 42.1078C35.7662 42.8251 36.4531 44.1481 36.9163 45.0566C37.8429 46.8896 38.1464 47.0968 38.5617 46.0927ZM43.7536 42.857C44.9836 41.6137 44.9517 41.7572 44.3606 40.6095C43.6577 39.2387 43.3861 38.9199 42.0443 37.8839C40.8621 36.9753 39.3765 36.3537 38.8493 36.545C38.6256 36.6406 38.6416 36.7044 39.057 36.9435C39.4883 37.2144 40.2072 37.8839 40.6704 38.4418C40.7663 38.5693 41.0698 39.0634 41.3414 39.5416C41.7727 40.3067 41.8366 40.5617 41.8366 41.6296C41.8366 42.8251 41.4851 44.2596 41.1656 44.4669C41.0698 44.5306 41.0378 44.6581 41.1017 44.7538C41.2136 44.945 42.843 43.7815 43.7536 42.857ZM10.7016 40.6733C12.1074 39.701 13.0499 38.3143 13.5452 36.545C13.8167 35.5567 13.7688 35.2061 13.4014 35.2061C13.2257 35.2061 13.0819 35.2858 13.0819 35.3655C13.0819 35.4611 13.002 35.5249 12.9221 35.5249C12.8263 35.5249 12.5547 35.7002 12.3151 35.9233C12.0755 36.1465 11.7879 36.3218 11.6761 36.3218C11.5643 36.3218 11.2767 36.4493 11.0531 36.6087C10.7016 36.8319 10.2703 36.8797 8.68882 36.8638C6.93159 36.8478 6.70794 36.816 5.98907 36.4334C5.55775 36.1943 5.17436 36.0349 5.12643 36.0668C5.01461 36.1943 6.37247 38.6171 6.94756 39.2706C7.25109 39.6213 7.49071 39.956 7.49071 40.0198C7.49071 40.0835 7.77825 40.4183 8.14568 40.753C8.73674 41.3268 8.83259 41.3746 9.39171 41.263C9.72718 41.1993 10.3023 40.9443 10.7016 40.6733ZM47.4597 38.6809C48.2585 37.6289 49.824 34.6801 49.824 34.2497C49.824 34.1541 50.0157 33.7078 50.2393 33.2455C50.6707 32.4167 51.102 30.7271 51.102 29.9142C51.102 29.2607 50.4949 28.6709 49.7122 28.5594C48.8176 28.4478 48.3863 28.5753 47.7313 29.1491C47.4278 29.4041 47.0923 29.6273 46.9965 29.6273C46.8846 29.6273 46.7888 29.6911 46.7888 29.7708C46.7888 29.8504 46.661 29.9461 46.5172 30.0098C46.3575 30.0577 46.022 30.233 45.7504 30.4083C45.4948 30.5837 45.0955 30.7271 44.8718 30.7271C44.6482 30.7431 44.3606 30.8228 44.2328 30.9025C44.0251 31.03 44.0731 31.1415 44.5044 31.54C44.776 31.7951 45.0475 32.1617 45.1114 32.337C45.1594 32.5123 45.2872 32.6558 45.367 32.6558C45.4469 32.6558 45.5108 32.7514 45.5108 32.8789C45.5108 33.0064 45.6066 33.3093 45.7344 33.5643C46.5811 35.2698 46.8367 37.5651 46.3894 39.3981C46.1977 40.1313 46.5492 39.8923 47.4597 38.6809ZM21.6764 37.8839C21.8042 37.597 21.9479 37.2144 22.0278 37.0391C22.4751 35.9552 22.6987 34.6163 22.5869 33.6281C22.523 33.0543 22.4112 32.5123 22.3473 32.4167C22.2834 32.337 22.1716 32.0341 22.1236 31.7791C22.0598 31.4922 21.7722 31.0937 21.4208 30.8228C20.5901 30.1374 19.2801 29.3085 19.0565 29.3085C18.9447 29.3085 18.8328 29.2607 18.8009 29.181C18.705 28.9578 17.0437 28.1928 16.6443 28.1928C16.3088 28.1928 15.4142 27.8102 15.1586 27.5552C15.1107 27.5074 14.8871 27.3639 14.6634 27.2364C13.657 26.6785 12.4589 25.8019 11.6601 25.0368C11.1809 24.5905 10.7496 24.2557 10.6857 24.2876C10.462 24.4311 11.133 28.1609 11.5803 29.2288C11.6921 29.4998 11.9157 30.0417 12.0755 30.4561C12.2352 30.8865 12.411 31.2212 12.4908 31.2212C12.5547 31.2212 12.6027 31.3169 12.6027 31.4444C12.6027 31.556 12.8263 31.9226 13.0819 32.2573C13.3535 32.592 13.5611 32.9427 13.5611 33.0383C13.5611 33.2137 16.213 36.019 16.9159 36.5769C17.2833 36.8638 17.7465 37.1188 19.1523 37.8361C19.4559 37.9955 19.8233 38.1867 19.9511 38.2505C20.0789 38.3143 20.4782 38.378 20.8297 38.378C21.4048 38.394 21.4847 38.3461 21.6764 37.8839ZM34.584 37.2782C34.9035 37.0869 35.2709 36.8319 35.3987 36.7044C35.5265 36.5928 35.7023 36.4812 35.7821 36.4812C35.862 36.4812 36.7087 35.7161 37.6512 34.7757C39.1528 33.2615 39.4563 32.863 40.0953 31.54C41.0378 29.6273 41.581 28.1928 41.8046 27.077C42.188 25.1962 42.1561 24.9411 41.581 25.4512C40.8302 26.1366 39.7918 26.9176 39.6321 26.9176C39.5362 26.9176 39.4404 26.9814 39.4084 27.0451C39.3924 27.1248 38.7215 27.603 37.9228 28.129C36.6288 28.9738 35.8141 29.4041 34.4562 29.9939C34.2006 30.0895 34.0089 30.233 34.0089 30.2968C34.0089 30.3605 33.945 30.4243 33.8492 30.4243C33.5616 30.4243 32.8587 31.1256 32.5872 31.6994C32.1239 32.6239 31.8843 33.7078 32.0121 34.3613C32.1239 35.0148 32.9546 37.6448 33.1303 37.9158C33.2102 38.0433 33.354 38.0114 33.6096 37.852C33.8172 37.7086 34.2485 37.4535 34.584 37.2782ZM5.50983 33.5962C6.05297 33.4049 7.01146 32.3689 7.01146 31.9863C7.01146 31.8269 7.07536 31.6994 7.15524 31.6994C7.23511 31.6994 7.34693 31.5081 7.41083 31.2691C7.45876 31.014 7.73033 30.3764 7.98593 29.8186C8.70479 28.2565 8.52907 27.6827 7.42681 27.9696C7.15524 28.0334 6.83574 27.9537 6.45234 27.7305C6.13285 27.5392 5.79738 27.3958 5.7175 27.3958C5.28618 27.3958 3.01775 25.3396 3.01775 24.9571C3.01775 24.9092 2.90593 24.6064 2.76216 24.2717C2.49059 23.65 2.49059 23.65 2.36279 24.1282C2.15511 24.8295 2.55448 28.4797 3.01775 30.3446C3.5609 32.5123 3.73662 33.134 3.84845 33.134C3.92832 33.134 3.97624 33.2296 3.97624 33.3571C3.97624 33.7397 4.80694 33.8672 5.50983 33.5962ZM51.6292 25.9612C51.6931 24.8455 51.4854 20.3346 51.3256 19.8724C51.2617 19.6493 51.07 19.5855 50.3831 19.5855C49.0093 19.5855 47.8431 20.0956 46.3575 21.3388C46.2456 21.4185 46.1178 21.4982 46.0699 21.4982C46.022 21.4982 45.6865 21.7692 45.3351 22.088C44.76 22.614 44.728 22.6937 44.9996 22.7893C45.1594 22.8531 45.6226 22.9009 46.006 22.9009C46.4054 22.8849 47.0444 23.0284 47.4917 23.2197C47.923 23.4109 48.3224 23.5703 48.3863 23.5703C48.5939 23.5703 50.2553 25.2121 50.5429 25.7222C51.1339 26.7104 51.5014 27.2205 51.5333 27.1089C51.5493 27.0451 51.5972 26.5351 51.6292 25.9612ZM7.65046 22.3749C8.17762 22.1039 8.17762 22.1039 7.79423 21.8011C7.58656 21.6417 7.15524 21.3866 6.85171 21.2273C6.54819 21.0679 6.18077 20.8606 6.05297 20.765C5.76543 20.5578 3.83247 20.0637 3.28933 20.0637C3.06568 20.0637 2.84203 20.1753 2.79411 20.3187C2.63436 20.7331 3.38518 21.8648 4.02417 22.1836C4.34367 22.343 4.61524 22.5502 4.61524 22.6299C4.61524 22.869 7.07536 22.6618 7.65046 22.3749ZM46.2297 19.1073C47.4438 18.4219 49.4087 17.6728 50.0317 17.6728C50.5908 17.6728 50.5908 17.6728 50.3831 17.0033C49.9518 15.6325 49.7601 15.2978 49.3128 15.1065C48.2744 14.6762 46.4693 15.3934 45.4309 16.6367C44.7919 17.4177 43.2903 20.51 43.3861 20.8606C43.45 21.1157 43.6098 21.036 44.4405 20.3665C44.9836 19.9202 45.7983 19.3623 46.2297 19.1073ZM10.0147 19.442C10.2384 18.2147 9.74316 16.812 8.78467 15.9513C6.85171 14.2139 6.05297 13.2098 6.05297 12.5084C6.05297 12.365 6.00505 12.2534 5.94115 12.2534C5.81335 12.2534 5.15838 13.4488 4.69511 14.5646C4.53536 14.9153 4.32769 15.4253 4.21587 15.6804C4.10404 15.9513 3.8804 16.557 3.73662 17.0352C3.57687 17.5134 3.41713 18.0075 3.3692 18.1191C3.32128 18.2466 3.497 18.3103 3.91234 18.3103C4.67914 18.3103 5.55775 18.5494 6.66002 19.0436C7.12329 19.2508 7.57058 19.4261 7.65046 19.4261C7.73033 19.4261 8.20957 19.6811 8.72077 19.984C9.21599 20.2868 9.69523 20.4781 9.74316 20.4143C9.80706 20.3506 9.93486 19.9202 10.0147 19.442ZM48.6578 13.1619C48.53 12.9707 48.3383 12.6359 48.2105 12.4128C48.0827 12.1896 47.7952 11.7593 47.5556 11.4405C47.3 11.1217 47.1083 10.787 47.1083 10.7073C47.1083 10.6276 46.8846 10.3407 46.629 10.0378C46.3575 9.75091 46.038 9.32055 45.9261 9.09739C45.6066 8.47576 42.22 5.43134 42.0602 5.60667C42.0283 5.63855 42.1401 6.08485 42.3318 6.61085C42.5075 7.12091 42.7312 7.80631 42.827 8.10915C43.0986 8.98582 43.1625 11.2811 42.9389 12.2215C42.827 12.6678 42.7951 13.0982 42.843 13.146C42.8909 13.2098 43.2743 13.1301 43.6897 12.9866C44.105 12.8431 44.8079 12.7316 45.2552 12.7316C46.006 12.7316 47.7473 13.1779 48.3543 13.5126C48.7537 13.7358 48.9134 13.5445 48.6578 13.1619ZM13.673 11.568C13.4813 11.2492 13.002 10.5957 12.6027 10.1335C11.5803 8.98582 11.3087 8.38012 11.1969 6.9934C11.085 5.79795 11.085 5.79795 9.72718 7.16873C8.17762 8.73079 7.65046 9.32055 7.65046 9.52776C7.65046 9.60745 7.53863 9.70309 7.41083 9.76685C7.28303 9.81467 7.17121 9.97406 7.17121 10.1016C7.17121 10.245 7.05939 10.4682 6.93159 10.5957C6.42039 11.1058 6.85171 12.094 7.58656 12.1259C7.76228 12.1259 8.48115 11.9824 9.21599 11.7911C10.3822 11.4883 10.6697 11.4724 11.5323 11.6158C12.4908 11.7911 13.5771 12.3012 13.7049 12.6359C13.7369 12.7316 13.8167 12.6678 13.8806 12.4925C13.9605 12.2853 13.8806 11.9665 13.673 11.568ZM37.2358 9.49588C37.6991 9.28867 38.4499 8.77861 38.8972 8.38012C39.7279 7.61503 40.7183 6.0211 40.7183 5.43134C40.7183 5.24007 40.7982 5.04879 40.8941 5.00098C41.1337 4.84158 40.1752 4.21995 38.1624 3.19983C36.485 2.35504 36.485 2.35504 36.4371 2.7854C36.4051 3.02449 36.517 3.50268 36.6767 3.86928C36.8844 4.33152 36.9643 4.8894 36.9643 5.87764C36.9643 7.53534 36.6128 8.31637 35.5265 9.06552C35.1272 9.33648 34.8077 9.62339 34.8077 9.70309C34.8077 10.0059 36.3892 9.86248 37.2358 9.49588ZM20.8936 6.61085C21.0054 6.21237 21.4048 5.43134 21.7722 4.87346C22.6508 3.53455 23.0182 2.56225 22.9543 1.70153C22.9064 1.01613 22.9064 1.01613 21.9639 1.04801C21.4367 1.06395 20.6859 1.19147 20.2865 1.31898C19.8872 1.4465 19.2322 1.63777 18.8328 1.73341C17.4111 2.10001 13.0819 4.25183 12.379 4.93722C12.0755 5.22413 12.0755 5.24007 12.363 5.55885C12.6985 5.92546 13.3854 5.97328 15.4781 5.70231C17.3791 5.47916 18.721 5.82982 19.9191 6.84994C20.2067 7.10497 20.4942 7.31218 20.5581 7.31218C20.622 7.31218 20.7818 6.9934 20.8936 6.61085ZM28.8011 5.3357C29.6957 4.66625 31.5488 3.75771 32.8108 3.40704C34.7118 2.8651 35.5265 2.38692 35.1751 2.03625C34.9514 1.8131 32.044 1.09583 31.3252 1.09583C31.0057 1.09583 30.3986 0.984256 29.9833 0.87268C28.4657 0.410439 23.9448 0.362621 23.9448 0.792984C23.9448 0.88862 24.3921 1.3668 24.9352 1.86092C26.3889 3.19983 26.948 3.82146 27.1717 4.3634C27.2835 4.61843 27.4592 4.93722 27.5711 5.04879C27.6829 5.16037 27.7787 5.39946 27.7787 5.57479C27.7787 6.00516 27.9864 5.95734 28.8011 5.3357Z" fill="#E87383"/>
<path d="M26.7082 29.7538C26.6283 29.6422 26.4207 29.2278 26.2609 28.8293C25.9574 28.1279 25.0788 26.5978 24.8871 26.4384C24.8392 26.3906 24.6634 26.0877 24.5037 25.7689C24.3599 25.4342 24.1682 25.1632 24.0883 25.1632C24.0085 25.1632 23.9446 24.9879 23.9446 24.7647C23.9446 24.5416 24.0085 24.3663 24.0883 24.3663C24.28 24.3663 25.0628 22.8042 25.0628 22.4217C25.0628 21.9116 24.4398 20.8118 23.7049 19.9829C22.4429 18.5962 21.5483 16.4922 21.5483 14.978C21.5643 12.9537 23.3056 10.4671 25.1746 9.81361C26.181 9.44701 28.114 9.51077 29.2482 9.94113C30.0789 10.244 31.293 11.3279 31.7083 12.1248C31.8521 12.4117 32.0278 12.6827 32.0917 12.7305C32.3154 12.874 32.7307 14.3245 32.7307 14.9461C32.7307 15.4562 32.4591 16.6516 32.1556 17.4326C31.916 18.0383 30.8457 19.4251 29.9032 20.3017C29.2003 20.9712 29.0405 21.2103 28.9607 21.816C28.8329 22.7404 29.1044 23.7287 29.6156 24.2069C30.0949 24.6532 30.1108 24.7966 29.7115 25.227C29.408 25.5617 28.9607 26.3109 28.4335 27.3947C28.2737 27.6976 27.9383 28.383 27.6827 28.893C27.2034 29.8972 26.9638 30.0885 26.7082 29.7538ZM23.8966 17.9108C23.4813 15.488 24.8232 13.6869 27.0277 13.6869C29.2642 13.6869 30.5262 15.2489 30.2866 17.7355C30.2227 18.4368 30.2386 18.4846 30.4303 18.2296C30.8137 17.7036 30.7179 15.6155 30.2706 14.6432C29.8393 13.7188 29.1683 12.8899 28.8329 12.8899C28.7051 12.8899 28.4175 12.7783 28.1619 12.6668C27.9223 12.5392 27.6827 12.4595 27.6188 12.4914C27.5709 12.5233 27.1236 12.5871 26.6283 12.6349C25.6858 12.7146 24.8232 13.0652 24.4558 13.5115C23.5452 14.6273 23.1458 15.4562 23.1458 16.2212C23.1458 17.1138 23.7209 18.7875 24.0244 18.7875C24.0404 18.7875 23.9925 18.389 23.8966 17.9108Z" fill="#E87383"/>
<path d="M81.6598 27.8121C81.4516 27.8121 81.285 27.708 81.16 27.4998C81.0351 27.2915 80.9726 26.9896 80.9726 26.5939L80.9414 21.9712C80.9206 21.5755 80.9102 20.9196 80.9102 20.0034C80.8685 18.0668 80.8477 15.8804 80.8477 13.444V11.851C80.6603 12.8506 80.3375 14.2561 79.8794 16.0678C79.4213 17.9419 79.0985 19.4828 78.9111 20.6905V20.8779L78.8174 21.4714C78.7758 21.9295 78.6717 22.398 78.5051 22.877C78.2968 23.3767 77.9741 23.6266 77.5368 23.6266C76.7872 23.6266 76.4123 22.6479 76.4123 20.6905C76.4123 19.6077 76.2978 18.452 76.0687 17.2235C75.8605 15.9741 75.5169 14.4435 75.038 12.6319L74.1009 9.1336L74.0385 12.8818C74.0385 14.0063 74.0905 16.1511 74.1946 19.3162L74.2571 21.4402L74.3196 25.7194C74.3196 26.1567 74.1634 26.5523 73.8511 26.9063C73.3305 26.9063 72.9661 26.7501 72.7578 26.4378C72.5704 26.1046 72.4767 25.6257 72.4767 25.001L72.5392 22.4397C72.6017 21.3152 72.6329 20.4719 72.6329 19.9097L72.5704 13.8813L72.508 7.82173C72.508 6.92633 72.5288 5.58323 72.5704 3.79242L73.4138 3.29266C73.5804 3.31349 73.7469 3.43843 73.9135 3.66748C74.0801 3.87572 74.2675 4.2193 74.4758 4.69824C74.9963 5.98928 75.6731 8.57137 76.506 12.4445C76.631 12.9859 76.7143 13.4336 76.7559 13.7876C77.0058 14.9954 77.1828 15.9116 77.2869 16.5363L77.7554 18.9414L77.9741 17.9106L78.5675 15.3494C78.9007 13.8501 79.1714 12.5382 79.3797 11.4138C79.6087 10.2893 79.8274 9.07113 80.0356 7.75926C80.2646 6.19751 80.4104 4.89606 80.4729 3.85489V3.66748C80.5145 3.39678 80.6395 3.18855 80.8477 3.04278C81.0559 2.8762 81.3058 2.7929 81.5973 2.7929C81.7847 2.7929 81.9513 2.8762 82.0971 3.04278C82.2429 3.20937 82.3157 3.38637 82.3157 3.57378C82.3157 6.07257 82.4094 9.81036 82.5969 14.7871C82.701 17.2235 82.7739 19.6077 82.8155 21.9399C82.8571 23.0019 82.878 24.345 82.878 25.9692C82.878 26.4482 82.753 26.8751 82.5032 27.2499C82.2533 27.6247 81.9722 27.8121 81.6598 27.8121ZM94.5637 27C94.2306 27 93.9807 26.9375 93.8141 26.8126C93.6683 26.6877 93.5955 26.4794 93.5955 26.1879V22.0961C93.3248 21.9087 92.8146 21.7421 92.065 21.5964C91.3153 21.4506 90.6073 21.3569 89.941 21.3152C89.7119 21.7525 89.5453 22.2835 89.4412 22.9082L89.3163 23.5329C89.2955 23.6787 89.233 24.0014 89.1289 24.5012C89.0247 25.001 88.9102 25.4383 88.7853 25.8131C88.6603 26.1671 88.5354 26.4482 88.4105 26.6564C87.6192 26.6564 87.1611 26.4482 87.0361 26.0317C87.2652 25.6985 87.5255 24.7198 87.817 23.0956L88.8478 17.3796C89.3059 14.6726 89.7223 12.3612 90.0971 10.4455C90.4928 8.52973 90.9093 6.92633 91.3465 5.63529C91.8255 4.19848 92.2836 3.48007 92.7209 3.48007C93.1582 3.48007 93.4913 3.56337 93.7204 3.72995C93.7204 4.56289 93.9182 6.57233 94.3139 9.7583C94.7303 12.8818 94.9386 15.0162 94.9386 16.1615C94.9386 17.2651 95.0531 18.8477 95.2822 20.9092C95.4904 23.0123 95.5945 24.6886 95.5945 25.938C95.5945 26.646 95.2509 27 94.5637 27ZM92.9395 20.2845C93.1061 20.2845 93.3144 20.2532 93.5642 20.1908C93.5018 19.2746 93.3976 18.1397 93.2519 16.7862C92.7729 12.0801 92.5335 9.19607 92.5335 8.13408V7.8842C92.3252 8.09244 92.0337 9.0399 91.6589 10.7266C91.3049 12.3924 90.9717 14.1833 90.6594 16.099C90.347 18.0147 90.1804 19.285 90.1596 19.9097C91.0342 20.1595 91.9608 20.2845 92.9395 20.2845ZM101.923 27.1562C101.694 27.1562 101.507 27.0625 101.361 26.8751C101.236 26.6668 101.173 26.4169 101.173 26.1254L101.236 20.8779C101.298 18.3375 101.33 16.3697 101.33 14.9745C101.33 10.1227 101.059 6.40575 100.517 3.82366C100.83 3.34472 101.225 3.10525 101.704 3.10525C102.475 3.10525 103.172 3.28225 103.797 3.63625C104.443 3.96942 104.974 4.42753 105.39 5.01059C106.202 6.21834 106.608 7.57185 106.608 9.07113C106.608 10.6329 106.275 12.028 105.609 13.2566C104.942 14.4852 103.974 15.4431 102.704 16.1302L102.766 19.285L102.829 20.9404C102.85 21.2944 102.86 21.8046 102.86 22.4709C102.923 23.8661 102.954 25.001 102.954 25.8755C102.954 26.2712 102.87 26.5835 102.704 26.8126C102.537 27.0416 102.277 27.1562 101.923 27.1562ZM102.641 14.631C103.454 13.8605 104.047 13.0588 104.422 12.2259C104.817 11.3721 105.015 10.4142 105.015 9.35225V9.32101C105.015 8.84207 104.963 8.2382 104.859 7.50938C104.797 7.2595 104.682 7.00962 104.515 6.75975C104.349 6.50987 104.255 6.3641 104.234 6.32245C104.089 6.11422 103.703 5.79146 103.079 5.35417L102.267 4.76071C102.267 5.8227 102.329 7.46774 102.454 9.69583L102.641 14.631ZM112.639 27.3123C112.327 27.3123 112.046 27.177 111.796 26.9063C111.546 26.6356 111.432 26.3337 111.452 26.0005C111.515 24.9385 111.546 23.8557 111.546 22.752C111.546 21.7942 111.525 20.3365 111.484 18.3792C111.463 17.4837 111.39 16.1406 111.265 14.3498C111.244 13.9958 111.213 13.4857 111.171 12.8193C111.13 12.1322 111.098 11.5283 111.078 11.0077C111.057 10.6537 111.046 10.1227 111.046 9.41472L111.078 6.22875C111.078 6.04134 111.057 5.78105 111.015 5.44788L110.984 4.72947C110.984 4.3963 111.067 4.13601 111.234 3.9486C111.421 3.76119 111.661 3.66748 111.952 3.66748C112.556 3.66748 112.9 3.9486 112.983 4.51083C113.066 5.13553 113.108 5.60405 113.108 5.9164C113.108 6.29122 113.077 6.66604 113.014 7.04086C112.91 7.81132 112.858 8.5089 112.858 9.1336L112.889 10.0706C112.972 11.9864 113.014 13.746 113.014 15.3494V19.0663C113.014 19.7118 113.035 20.6801 113.077 21.9712L113.264 22.0024L113.639 20.7842C114.263 18.6811 114.857 16.7653 115.419 15.037C115.711 14.2249 116.023 12.9651 116.356 11.2576C116.502 10.5079 116.637 9.90406 116.762 9.44595L118.324 3.82366C118.47 3.55295 118.647 3.35513 118.855 3.23019C119.063 3.08443 119.271 3.02196 119.48 3.04278C119.73 3.10525 119.969 3.28225 120.198 3.57378C120.427 3.84448 120.531 4.11518 120.51 4.38589C120.49 5.1147 120.427 5.87475 120.323 6.66604C120.136 9.26895 120.032 10.9036 120.011 11.5699C119.927 14.3603 119.886 16.453 119.886 17.8482C119.886 18.5145 119.938 19.5661 120.042 21.0029C120.146 22.4189 120.209 23.3559 120.229 23.814L120.354 25.3758C120.375 25.8131 120.271 26.1567 120.042 26.4065C119.813 26.6564 119.511 26.7814 119.136 26.7814C118.907 26.7814 118.709 26.7085 118.543 26.5627C118.376 26.3961 118.282 26.1775 118.262 25.9068V25.6257L118.293 19.3474V18.223C118.251 17.1402 118.21 15.4743 118.168 13.2254V11.9447V9.88324C118.147 9.86242 118.095 9.85201 118.012 9.85201C117.887 9.87283 117.699 10.3518 117.449 11.2888C117.22 12.205 117.002 13.1317 116.794 14.0687C116.585 14.985 116.45 15.568 116.387 15.8179C116.2 16.7133 116.086 17.2235 116.044 17.3484C115.461 19.3266 114.992 20.9821 114.638 22.3148C114.284 23.6266 113.993 24.9593 113.764 26.3128C113.639 26.9792 113.264 27.3123 112.639 27.3123ZM132.161 27.1562C131.682 27.1562 131.401 26.9167 131.318 26.4378C131.213 25.6465 131.161 24.8968 131.161 24.1889C131.099 22.5855 131.047 20.9196 131.005 19.1913C130.984 17.4421 130.974 16.1719 130.974 15.3806C130.516 15.5888 130.151 15.8804 129.881 16.2552C129.631 16.6092 129.391 17.0673 129.162 17.6295C128.788 18.6499 128.6 19.6598 128.6 20.6593V21.4402C128.6 21.5651 128.59 21.9503 128.569 22.5959C128.548 23.2414 128.486 23.9494 128.381 24.7198C128.257 25.761 127.736 26.5419 126.82 27.0625C126.674 27.1458 126.487 27.1874 126.257 27.1874C125.987 27.1874 125.758 27.1249 125.57 27C125.404 26.8542 125.352 26.6564 125.414 26.4065C125.456 26.2608 125.518 26.1567 125.602 26.0942C125.685 26.0317 125.799 25.9692 125.945 25.9068C126.112 25.8443 126.237 25.7818 126.32 25.7194C126.632 25.4278 126.788 25.0322 126.788 24.5324L126.82 21.9087C126.861 20.8884 126.913 20.1075 126.976 19.5661C127.038 19.0038 127.195 18.3583 127.444 17.6295C127.528 17.3588 127.726 16.9319 128.038 16.3489C128.35 15.745 128.579 15.3598 128.725 15.1932C127.621 14.6518 126.851 13.975 126.414 13.1629C125.997 12.3508 125.789 11.1639 125.789 9.60213C125.789 8.37355 126.008 7.1658 126.445 5.97887C126.882 4.81277 127.601 4.07354 128.6 3.76119L129.974 3.29266C130.162 3.20937 130.37 3.16772 130.599 3.16772C131.036 3.16772 131.536 3.35513 132.098 3.72995C132.452 3.93819 132.629 4.28177 132.629 4.76071C132.504 6.50987 132.442 7.83215 132.442 8.72755V9.88324V12.4445V15.6617C132.442 17.869 132.463 19.5348 132.504 20.6593C132.525 21.5131 132.557 22.2731 132.598 22.9395C132.64 23.6058 132.671 24.1576 132.692 24.5949L132.786 26.3128V26.5002C132.786 26.7709 132.744 26.9479 132.661 27.0312C132.577 27.1145 132.411 27.1562 132.161 27.1562ZM130.849 4.47959C130.745 4.52124 130.505 4.60453 130.131 4.72947C129.777 4.85441 129.464 5.00018 129.194 5.16676C128.881 5.31252 128.59 5.62487 128.319 6.10381C128.069 6.56192 127.871 7.05127 127.726 7.57185C127.58 8.09244 127.517 8.48808 127.538 8.75878L127.601 10.1331C127.601 10.7786 127.611 11.2888 127.632 11.6636C127.653 12.2467 127.819 12.736 128.132 13.1317C128.465 13.5065 128.923 13.7668 129.506 13.9126C129.735 13.975 129.995 14.0687 130.287 14.1937C130.599 14.2978 130.828 14.3811 130.974 14.4435L130.849 4.47959ZM74.3508 57C73.6845 57 73.1847 56.9479 72.8515 56.8438C72.6433 56.7814 72.4976 56.6668 72.4143 56.5002C72.3518 56.3337 72.3206 56.1046 72.3206 55.8131C72.2997 55.3758 72.2893 54.7615 72.2893 53.9702C72.2893 53.3455 72.3101 52.4918 72.3518 51.4089L72.383 48.9101C72.4038 48.452 72.4143 47.7753 72.4143 46.8799C72.4143 46.2135 72.4038 45.7138 72.383 45.3806L72.3206 41.5075C72.3206 39.5084 72.2997 38.0091 72.2581 37.0096C72.2373 36.4474 72.2268 35.6145 72.2268 34.5108C72.2268 34.1152 72.2893 33.8549 72.4143 33.73C72.56 33.605 72.8411 33.5321 73.2576 33.5113L74.3508 33.4801C75.2254 33.4176 76.0792 33.3864 76.9121 33.3864C77.2244 33.3864 77.516 33.4905 77.7867 33.6987C77.9324 33.8237 78.0053 33.9902 78.0053 34.1985C78.0053 34.4275 77.8908 34.6045 77.6617 34.7295C77.2869 34.9169 76.9225 35.0106 76.5685 35.0106C75.215 35.0106 74.4133 35.0522 74.1634 35.1355C73.9344 35.2188 73.8198 35.4271 73.8198 35.7602C73.8198 36.0726 73.8198 36.3225 73.8198 36.5099L73.8511 37.8217C73.8927 38.9878 73.9135 39.8624 73.9135 40.4455C73.9135 41.1743 73.9031 41.7261 73.8823 42.1009C73.8615 42.2259 73.8511 42.3404 73.8511 42.4445C73.8719 42.5486 73.8823 42.6423 73.8823 42.7256C73.9031 42.8714 73.9135 43.1421 73.9135 43.5377C75.0172 43.4753 75.8917 43.7043 76.5373 44.2249C77.162 44.7455 77.7034 45.6097 78.1615 46.8174C78.6196 48.0252 78.8487 49.285 78.8487 50.5968C78.8487 50.9925 78.8382 51.284 78.8174 51.4714C78.6717 52.7 78.2968 53.7828 77.693 54.7198C77.214 55.407 76.6934 55.9172 76.1312 56.2504C76.0271 56.3128 75.8605 56.4169 75.6315 56.5627C75.4024 56.6877 75.1838 56.7918 74.9755 56.8751C74.7673 56.9584 74.5591 57 74.3508 57ZM74.1634 55.1571C74.8506 55.053 75.4336 54.7615 75.9126 54.2826C76.4123 53.8036 76.7351 53.1893 76.8809 52.4397C77.0683 51.7733 77.162 51.0237 77.162 50.1908C77.162 49.2537 77.0474 48.3271 76.8184 47.4109C76.7351 47.0777 76.5997 46.7549 76.4123 46.4426C76.2249 46.1302 76.0271 45.8387 75.8189 45.568C75.6315 45.2973 75.4961 45.0995 75.4128 44.9745C75.1838 44.8912 74.9547 44.8496 74.7256 44.8496L73.9448 44.8808C73.9864 46.1719 74.0281 48.1293 74.0697 50.753L74.1634 55.1571ZM84.1032 57.1562C83.8742 57.1562 83.6867 57.0625 83.541 56.8751C83.416 56.6668 83.3536 56.4169 83.3536 56.1254L83.416 50.8779C83.4785 48.3375 83.5097 46.3697 83.5097 44.9745C83.5097 40.1227 83.239 36.4057 82.6976 33.8237C83.01 33.3447 83.4056 33.1053 83.8846 33.1053C84.655 33.1053 85.3526 33.2823 85.9773 33.6362C86.6228 33.9694 87.1538 34.4275 87.5703 35.0106C88.3824 36.2183 88.7885 37.5719 88.7885 39.0711C88.7885 40.6329 88.4553 42.028 87.7889 43.2566C87.1226 44.4852 86.1543 45.4431 84.8841 46.1302L84.9466 49.285L85.009 50.9404C85.0298 51.2944 85.0403 51.8046 85.0403 52.4709C85.1027 53.8661 85.134 55.001 85.134 55.8755C85.134 56.2712 85.0507 56.5835 84.8841 56.8126C84.7175 57.0416 84.4572 57.1562 84.1032 57.1562ZM84.8216 44.631C85.6337 43.8605 86.2272 43.0588 86.602 42.2259C86.9976 41.3721 87.1955 40.4142 87.1955 39.3522V39.321C87.1955 38.8421 87.1434 38.2382 87.0393 37.5094C86.9768 37.2595 86.8623 37.0096 86.6957 36.7597C86.5291 36.5099 86.4354 36.3641 86.4146 36.3225C86.2688 36.1142 85.8836 35.7915 85.2589 35.3542L84.4468 34.7607C84.4468 35.8227 84.5093 37.4677 84.6342 39.6958L84.8216 44.631ZM99.7858 57C99.4527 57 99.2028 56.9375 99.0362 56.8126C98.8904 56.6877 98.8176 56.4794 98.8176 56.1879V52.0961C98.5469 51.9087 98.0367 51.7421 97.287 51.5964C96.5374 51.4506 95.8294 51.3569 95.1631 51.3152C94.934 51.7525 94.7674 52.2835 94.6633 52.9082L94.5384 53.5329C94.5175 53.6787 94.4551 54.0014 94.351 54.5012C94.2468 55.001 94.1323 55.4383 94.0074 55.8131C93.8824 56.1671 93.7575 56.4482 93.6326 56.6564C92.8413 56.6564 92.3832 56.4482 92.2582 56.0317C92.4873 55.6985 92.7476 54.7198 93.0391 53.0956L94.0698 47.3796C94.528 44.6726 94.9444 42.3612 95.3192 40.4455C95.7149 38.5297 96.1314 36.9263 96.5686 35.6353C97.0476 34.1985 97.5057 33.4801 97.943 33.4801C98.3803 33.4801 98.7134 33.5634 98.9425 33.73C98.9425 34.5629 99.1403 36.5723 99.536 39.7583C99.9524 42.8818 100.161 45.0162 100.161 46.1615C100.161 47.2651 100.275 48.8477 100.504 50.9092C100.712 53.0123 100.817 54.6886 100.817 55.938C100.817 56.646 100.473 57 99.7858 57ZM98.1616 50.2845C98.3282 50.2845 98.5364 50.2532 98.7863 50.1908C98.7239 49.2746 98.6197 48.1397 98.474 46.7862C97.995 42.0801 97.7556 39.1961 97.7556 38.1341V37.8842C97.5473 38.0924 97.2558 39.0399 96.881 40.7266C96.527 42.3924 96.1938 44.1833 95.8815 46.099C95.5691 48.0147 95.4025 49.285 95.3817 49.9097C96.2563 50.1595 97.1829 50.2845 98.1616 50.2845ZM106.083 57.8433C105.479 57.6976 105.177 57.4061 105.177 56.9688C105.177 56.6981 105.302 56.4586 105.552 56.2504C105.802 56.0213 106.083 55.9068 106.395 55.9068C106.895 55.9068 107.249 55.6673 107.457 55.1884C107.666 54.7094 107.811 54.2826 107.895 53.9077C107.999 53.5121 108.103 52.9811 108.207 52.3148C108.436 50.7947 108.686 49.5765 108.957 48.6603C109.019 48.4104 109.123 48.1397 109.269 47.8482C109.415 47.5566 109.509 47.3588 109.55 47.2547L109.925 46.5363C109.467 46.3489 109.092 45.9324 108.801 45.2869C108.509 44.6414 108.353 43.9438 108.332 43.1941C108.29 41.8615 108.186 40.6225 108.02 39.4772C107.895 38.6443 107.645 37.676 107.27 36.5723C107.062 35.906 106.687 35.6145 106.146 35.6978C105.896 35.7394 105.635 35.6665 105.365 35.4791C105.115 35.2917 104.99 35.0522 104.99 34.7607C105.011 34.4692 105.136 34.2089 105.365 33.9798C105.615 33.73 105.885 33.605 106.177 33.605C107.093 33.605 107.801 33.9382 108.301 34.6045C108.801 35.3125 109.165 36.1246 109.394 37.0409C109.602 37.8738 109.738 38.5401 109.8 39.0399C109.863 39.5397 109.904 40.1435 109.925 40.8515C109.925 41.0389 109.935 41.3513 109.956 41.7886C109.977 42.2259 110.008 42.684 110.05 43.1629C110.092 43.8709 110.258 44.4331 110.55 44.8496C110.841 45.2452 111.31 45.5472 111.955 45.7554L111.862 42.2883L111.768 38.4152C111.768 37.4157 111.789 36.1455 111.83 34.6045C111.872 34.1672 112.049 33.8549 112.361 33.6675C112.507 33.5842 112.684 33.5425 112.892 33.5425C113.142 33.5425 113.361 33.6362 113.548 33.8237C113.736 33.9902 113.829 34.2193 113.829 34.5108C113.829 34.6774 113.809 34.9065 113.767 35.198C113.725 35.5312 113.704 35.7706 113.704 35.9164C113.579 38.2903 113.517 40.206 113.517 41.6636V43.0692C113.517 44.4227 113.486 45.3285 113.423 45.7866C113.798 45.6201 114.069 45.4639 114.235 45.3181C114.402 45.1515 114.506 44.9641 114.548 44.7559C114.631 44.3394 114.735 43.7251 114.86 42.913C114.902 42.6632 115.006 42.0489 115.172 41.0702L115.485 39.4147C115.735 37.9987 115.953 36.9576 116.141 36.2912C116.349 35.6249 116.672 35.0626 117.109 34.6045C117.63 34.0215 118.296 33.73 119.108 33.73C119.337 33.73 119.504 33.7404 119.608 33.7612C120.024 33.8237 120.337 34.0527 120.545 34.4484C120.628 34.6149 120.67 34.7815 120.67 34.9481C120.67 35.1772 120.587 35.3646 120.42 35.5103C120.253 35.6561 120.024 35.7186 119.733 35.6978C119.483 35.5936 119.275 35.5416 119.108 35.5416C118.671 35.5416 118.286 35.7602 117.952 36.1975C117.619 36.614 117.39 37.1242 117.265 37.728C117.203 38.0612 117.14 38.4152 117.078 38.79C117.015 39.1648 116.953 39.5397 116.89 39.9145C116.62 41.6428 116.37 43.0484 116.141 44.1312C115.912 45.1932 115.641 45.9636 115.329 46.4426C115.787 47.0881 116.12 47.7753 116.328 48.5041C116.536 49.2121 116.682 50.0346 116.765 50.9717C116.828 51.7005 116.963 52.7416 117.172 54.0951C117.255 54.4908 117.39 54.8136 117.578 55.0634C117.765 55.3133 118.004 55.4383 118.296 55.4383C118.4 55.4383 118.483 55.4278 118.546 55.407C118.629 55.3862 118.764 55.3758 118.952 55.3758C119.472 55.3758 119.774 55.5736 119.858 55.9692C119.879 56.0317 119.889 56.1358 119.889 56.2816C119.889 56.469 119.837 56.646 119.733 56.8126C119.649 56.9792 119.535 57.1041 119.389 57.1874C118.889 57.4373 118.431 57.5622 118.015 57.5622C117.703 57.5622 117.411 57.4893 117.14 57.3436C116.765 57.1354 116.453 56.8022 116.203 56.3441C115.953 55.8651 115.776 55.3341 115.672 54.7511C115.61 54.4596 115.547 54.1056 115.485 53.6891C115.443 53.2726 115.412 52.9499 115.391 52.7208L115.11 50.7842C115.089 50.7009 115.037 50.2845 114.954 49.5348C114.891 48.7644 114.662 47.9731 114.267 47.161L113.642 47.1922C113.642 49.2329 113.684 51.3985 113.767 53.6891L113.829 55.9692C113.829 56.2816 113.736 56.5419 113.548 56.7501C113.382 56.9375 113.153 57.0312 112.861 57.0312C112.611 57.0104 112.393 56.9063 112.205 56.7189C112.018 56.5107 111.924 56.2712 111.924 56.0005L112.08 47.0985C111.643 46.9944 111.268 47.2443 110.956 47.8482C110.643 48.452 110.446 49.0039 110.362 49.5036C110.196 50.2324 110.071 50.9092 109.987 51.5339C109.946 51.6588 109.904 51.8879 109.863 52.2211L109.706 53.1269C109.581 53.9182 109.446 54.6157 109.3 55.2196C109.155 55.8027 108.957 56.3128 108.707 56.7501C108.499 57.1458 108.228 57.4373 107.895 57.6247C107.562 57.8329 107.176 57.937 106.739 57.937C106.531 57.937 106.312 57.9058 106.083 57.8433ZM130.193 57.4685C129.922 57.4685 129.714 57.3644 129.568 57.1562C129.443 56.9688 129.38 56.7293 129.38 56.4378C129.38 52.0857 129.297 48.4104 129.131 45.4118C128.631 45.3285 128.277 45.2869 128.069 45.2869C127.215 45.2869 126.601 45.3598 126.226 45.5055C126.226 46.6716 126.319 48.4312 126.507 50.7842C126.673 53.283 126.757 55.053 126.757 56.0942C126.757 56.3024 126.694 56.5002 126.569 56.6877C126.444 56.8542 126.288 56.9375 126.101 56.9375C125.83 56.9375 125.58 56.4586 125.351 55.5007C125.018 54.0847 124.747 51.1174 124.539 46.5988C124.393 43.5377 124.32 40.2476 124.32 36.7285C124.3 36.083 124.289 35.1668 124.289 33.9798C124.289 33.605 124.466 33.4176 124.82 33.4176C125.028 33.4176 125.237 33.4697 125.445 33.5738C125.674 33.6779 125.841 33.7924 125.945 33.9174C125.861 34.5837 125.82 35.3646 125.82 36.26C125.82 37.1346 125.861 38.1966 125.945 39.446C126.007 40.8828 126.038 41.9656 126.038 42.6944V43.2566C126.018 43.4232 126.007 43.621 126.007 43.8501C126.007 44.0583 126.028 44.329 126.07 44.6622C126.195 44.6622 126.403 44.6518 126.694 44.631C126.986 44.6101 127.277 44.5789 127.569 44.5373C128.256 44.4748 128.766 44.4435 129.099 44.4435C129.099 42.6319 129.079 40.9556 129.037 39.4147L128.974 34.1985V33.3551C129.245 33.3551 129.485 33.4072 129.693 33.5113C129.901 33.5946 130.057 33.7091 130.161 33.8549C130.349 34.0839 130.463 34.4796 130.505 35.0418V35.7602C130.505 37.551 130.609 40.9765 130.817 46.0365C131.005 50.6177 131.098 54.0535 131.098 56.3441C131.098 56.6356 131.005 56.8959 130.817 57.1249C130.651 57.354 130.442 57.4685 130.193 57.4685ZM137.816 57.3123C137.504 57.3123 137.223 57.177 136.973 56.9063C136.723 56.6356 136.609 56.3337 136.629 56.0005C136.692 54.9385 136.723 53.8557 136.723 52.752C136.723 51.7942 136.702 50.3365 136.661 48.3792C136.64 47.4837 136.567 46.1406 136.442 44.3498C136.421 43.9958 136.39 43.4857 136.348 42.8193C136.307 42.1322 136.275 41.5283 136.255 41.0077C136.234 40.6537 136.223 40.1227 136.223 39.4147L136.255 36.2288C136.255 36.0413 136.234 35.781 136.192 35.4479L136.161 34.7295C136.161 34.3963 136.244 34.136 136.411 33.9486C136.598 33.7612 136.838 33.6675 137.129 33.6675C137.733 33.6675 138.077 33.9486 138.16 34.5108C138.243 35.1355 138.285 35.6041 138.285 35.9164C138.285 36.2912 138.254 36.666 138.191 37.0409C138.087 37.8113 138.035 38.5089 138.035 39.1336L138.066 40.0706C138.15 41.9864 138.191 43.746 138.191 45.3494V49.0663C138.191 49.7118 138.212 50.6801 138.254 51.9712L138.441 52.0024L138.816 50.7842C139.441 48.6811 140.034 46.7653 140.596 45.037C140.888 44.2249 141.2 42.9651 141.533 41.2576C141.679 40.5079 141.814 39.9041 141.939 39.446L143.501 33.8237C143.647 33.553 143.824 33.3551 144.032 33.2302C144.24 33.0844 144.449 33.022 144.657 33.0428C144.907 33.1053 145.146 33.2823 145.375 33.5738C145.604 33.8445 145.708 34.1152 145.688 34.3859C145.667 35.1147 145.604 35.8748 145.5 36.666C145.313 39.269 145.209 40.9036 145.188 41.5699C145.105 44.3603 145.063 46.453 145.063 47.8482C145.063 48.5145 145.115 49.5661 145.219 51.0029C145.323 52.4189 145.386 53.3559 145.406 53.814L145.531 55.3758C145.552 55.8131 145.448 56.1567 145.219 56.4065C144.99 56.6564 144.688 56.7814 144.313 56.7814C144.084 56.7814 143.886 56.7085 143.72 56.5627C143.553 56.3961 143.459 56.1775 143.439 55.9068V55.6257L143.47 49.3474V48.223C143.428 47.1402 143.387 45.4743 143.345 43.2254V41.9447V39.8832C143.324 39.8624 143.272 39.852 143.189 39.852C143.064 39.8728 142.876 40.3518 142.627 41.2888C142.397 42.205 142.179 43.1317 141.971 44.0687C141.762 44.985 141.627 45.568 141.565 45.8179C141.377 46.7133 141.263 47.2235 141.221 47.3484C140.638 49.3266 140.169 50.9821 139.815 52.3148C139.461 53.6266 139.17 54.9593 138.941 56.3128C138.816 56.9792 138.441 57.3123 137.816 57.3123ZM156.963 57.531C156.422 57.531 155.953 57.3228 155.558 56.9063C155.183 56.4898 154.975 55.9797 154.933 55.3758C154.808 54.5012 154.725 53.0956 154.683 51.1591L154.621 49.2225C154.621 48.6811 154.454 48.1605 154.121 47.6607C153.788 47.1402 153.361 46.8382 152.84 46.7549C152.986 51.0862 153.059 54.293 153.059 56.3753C153.059 56.9584 152.851 57.2499 152.434 57.2499C152.267 57.2499 152.101 57.2082 151.934 57.1249C151.539 56.9375 151.372 56.6356 151.435 56.2191C151.601 54.9906 151.684 53.7724 151.684 52.5646C151.684 51.6901 151.653 50.7738 151.591 49.816C151.57 49.3578 151.56 48.6603 151.56 47.7232C151.539 47.4317 151.528 46.9736 151.528 46.3489C151.445 42.9339 151.351 40.3622 151.247 38.6338C151.185 37.5927 151.029 36.26 150.779 34.6358C150.758 34.5525 150.747 34.4275 150.747 34.2609C150.747 33.6154 151.018 33.2406 151.56 33.1365C151.872 33.074 152.122 33.1677 152.309 33.4176C152.517 33.6467 152.632 33.9486 152.653 34.3234C152.674 34.5941 152.694 34.9169 152.715 35.2917C152.736 35.6457 152.746 35.9268 152.746 36.135L152.778 37.1658C152.819 38.3736 152.84 39.2585 152.84 39.8208V45.3806C153.028 44.9433 153.257 44.2665 153.527 43.3503C153.798 42.4341 154.006 41.6532 154.152 41.0077C154.214 40.6745 154.277 40.2685 154.339 39.7895C154.423 39.3106 154.485 38.9462 154.527 38.6963C154.673 37.3636 154.86 36.2912 155.089 35.4791C155.36 34.5212 155.87 33.8237 156.62 33.3864C156.932 33.199 157.192 33.1053 157.4 33.1053C157.546 33.1053 157.744 33.1573 157.994 33.2614C158.327 33.4072 158.494 33.7195 158.494 34.1985C158.494 34.5525 158.275 34.7815 157.838 34.8856C157.005 35.0314 156.463 35.5832 156.214 36.5411C156.068 37.1242 155.932 37.7593 155.807 38.4464C155.662 39.3627 155.537 39.9561 155.433 40.2268C155.079 41.3096 154.881 42.1842 154.839 42.8506C154.777 43.4128 154.683 43.9126 154.558 44.3498C154.433 44.7663 154.235 45.1203 153.965 45.4118C154.485 45.4951 154.933 45.8595 155.308 46.5051C155.683 47.1506 155.922 47.9939 156.026 49.0351C156.109 49.7639 156.245 51.3465 156.432 53.7828L156.495 54.47C156.557 54.9906 156.807 55.2821 157.244 55.3445C157.577 55.4487 157.817 55.584 157.963 55.7506C158.108 55.8964 158.181 56.1046 158.181 56.3753C158.181 56.7085 158.067 56.9792 157.838 57.1874C157.609 57.4165 157.317 57.531 156.963 57.531ZM166.935 57.8746C166.372 57.8746 165.862 57.6872 165.404 57.3123C164.946 56.9375 164.55 56.4274 164.217 55.7818C163.613 54.6574 163.166 53.1165 162.874 51.1591C162.666 49.8055 162.51 48.2438 162.406 46.4738L162.374 44.8184V43.1317C162.354 42.5903 162.343 41.9343 162.343 41.1639C162.343 39.9145 162.395 38.8108 162.499 37.853C162.583 36.8534 162.791 35.8643 163.124 34.8856C163.457 34.0319 163.936 33.428 164.561 33.074C164.936 32.9074 165.31 32.8241 165.685 32.8241C166.789 32.8241 167.663 33.2614 168.309 34.136C169.017 35.1147 169.486 36.2079 169.715 37.4157C170.048 38.8733 170.235 40.2685 170.277 41.6012C170.36 43.0796 170.402 44.4748 170.402 45.7866V47.567C170.402 47.921 170.35 48.5874 170.246 49.5661C170.162 50.3365 170.121 50.9925 170.121 51.5339V51.6588C169.996 52.2419 169.933 52.929 169.933 53.7203C169.933 54.3034 169.808 54.9073 169.558 55.532C169.309 56.1567 168.955 56.6877 168.496 57.1249C168.038 57.6247 167.518 57.8746 166.935 57.8746ZM166.997 56.1567C167.414 56.1567 167.768 55.7714 168.059 55.001C168.309 54.3138 168.486 53.4809 168.59 52.5022C168.715 51.5026 168.819 50.3782 168.902 49.1288C168.944 48.5874 168.965 47.8898 168.965 47.036L168.934 44.1624C168.892 43.038 168.767 41.6324 168.559 39.9457C168.392 38.5089 168.08 37.2387 167.622 36.135C167.414 35.6145 167.153 35.2084 166.841 34.9169C166.529 34.6254 166.195 34.4796 165.841 34.4796C165.321 34.4796 164.936 34.8856 164.686 35.6978C164.373 36.5515 164.165 37.4886 164.061 38.5089C163.936 39.6125 163.863 40.6641 163.842 41.6636L163.811 42.6944C163.79 42.9859 163.78 43.3816 163.78 43.8813V44.0063C163.78 45.4014 163.926 47.1193 164.217 49.16C164.55 51.9295 165.04 53.8973 165.685 55.0634C166.102 55.7922 166.539 56.1567 166.997 56.1567ZM176.976 57.2499C176.018 57.2499 175.539 56.9896 175.539 56.469L175.601 52.6271L175.664 48.7852C175.664 47.39 175.633 45.2765 175.57 42.4445C175.508 39.6334 175.476 37.5198 175.476 36.1038V35.9164C175.476 35.375 175.529 34.8752 175.633 34.4171C175.758 33.8549 176.091 33.5738 176.632 33.5738C178.09 33.5738 179.245 34.0423 180.099 34.9794C180.953 35.9164 181.38 37.1554 181.38 38.6963C181.38 39.6334 181.13 40.6121 180.63 41.6324C180.13 42.6527 179.537 43.4128 178.85 43.9126C180.058 44.7247 180.943 45.7762 181.505 47.0673C182.088 48.3375 182.379 49.7431 182.379 51.284C182.379 52.0128 182.13 52.9186 181.63 54.0014C181.026 55.2925 180.203 56.2191 179.162 56.7814C178.537 57.0937 177.85 57.2499 177.101 57.2499H176.976ZM177.288 43.444C177.829 43.3191 178.288 42.8714 178.662 42.1009C178.975 41.5179 179.266 40.8099 179.537 39.9769C179.599 39.7479 179.704 39.4564 179.849 39.1024V38.0091C179.849 37.3844 179.62 36.7806 179.162 36.1975C178.704 35.6145 178.183 35.3229 177.6 35.3229C177.309 35.3229 177.163 35.6457 177.163 36.2912C177.163 37.6656 177.184 38.8941 177.226 39.9769L177.288 43.444ZM177.413 55.6257C178.433 55.4799 179.245 55.0114 179.849 54.2201C180.453 53.4288 180.755 52.4813 180.755 51.3777C180.755 50.4198 180.672 49.5453 180.505 48.754C180.36 47.9419 180.162 47.3276 179.912 46.9111C179.683 46.5155 179.454 46.1823 179.225 45.9116C178.996 45.6409 178.798 45.4639 178.631 45.3806L178.381 45.2869H177.257C177.361 47.6816 177.413 51.1278 177.413 55.6257ZM193.076 57C192.743 57 192.493 56.9375 192.326 56.8126C192.18 56.6877 192.108 56.4794 192.108 56.1879V52.0961C191.837 51.9087 191.327 51.7421 190.577 51.5964C189.827 51.4506 189.119 51.3569 188.453 51.3152C188.224 51.7525 188.057 52.2835 187.953 52.9082L187.828 53.5329C187.808 53.6787 187.745 54.0014 187.641 54.5012C187.537 55.001 187.422 55.4383 187.297 55.8131C187.172 56.1671 187.048 56.4482 186.923 56.6564C186.131 56.6564 185.673 56.4482 185.548 56.0317C185.777 55.6985 186.038 54.7198 186.329 53.0956L187.36 47.3796C187.818 44.6726 188.234 42.3612 188.609 40.4455C189.005 38.5297 189.421 36.9263 189.859 35.6353C190.338 34.1985 190.796 33.4801 191.233 33.4801C191.67 33.4801 192.003 33.5634 192.233 33.73C192.233 34.5629 192.43 36.5723 192.826 39.7583C193.242 42.8818 193.451 45.0162 193.451 46.1615C193.451 47.2651 193.565 48.8477 193.794 50.9092C194.003 53.0123 194.107 54.6886 194.107 55.938C194.107 56.646 193.763 57 193.076 57ZM191.452 50.2845C191.618 50.2845 191.826 50.2532 192.076 50.1908C192.014 49.2746 191.91 48.1397 191.764 46.7862C191.285 42.0801 191.046 39.1961 191.046 38.1341V37.8842C190.837 38.0924 190.546 39.0399 190.171 40.7266C189.817 42.3924 189.484 44.1833 189.172 46.099C188.859 48.0147 188.693 49.285 188.672 49.9097C189.546 50.1595 190.473 50.2845 191.452 50.2845Z" fill="#E87383"/>
<path d="M73.6542 77.3901C73.2983 77.3901 72.9699 77.2737 72.6688 77.0411C72.3677 76.8221 72.1213 76.521 71.9297 76.1378C71.5328 75.3029 71.2865 74.3928 71.1907 73.4074C71.0675 72.4768 71.0059 71.5803 71.0059 70.7181C71.0059 70.5539 71.0128 70.417 71.0265 70.3075V69.938C71.0265 69.8696 71.0196 69.8354 71.0059 69.8354V69.4658L71.0265 68.0288C71.0401 67.5908 71.0949 66.8929 71.1907 65.9348C71.2591 65.2779 71.4165 64.6415 71.6629 64.0256C71.7587 63.7519 71.8818 63.5466 72.0324 63.4098C72.1829 63.2592 72.354 63.1839 72.5456 63.1839C73.093 63.1839 73.5857 63.2866 74.0237 63.4919C74.4617 63.6835 74.8312 63.9572 75.1323 64.313C75.406 64.6552 75.6387 65.0794 75.8303 65.5858C76.0219 66.0785 76.1587 66.6054 76.2408 67.1666C76.323 67.7414 76.364 68.3504 76.364 68.9937V69.1579C76.364 69.5822 76.3709 69.9654 76.3845 70.3075L76.4051 71.4777C76.4051 75.4193 75.4881 77.3901 73.6542 77.3901ZM73.5721 76.5278C73.8184 76.5278 74.0442 76.432 74.2495 76.2404C74.4548 76.0351 74.6122 75.7614 74.7217 75.4193C74.9817 74.7213 75.1391 73.9685 75.1939 73.1611C75.2623 72.4631 75.2965 71.8609 75.2965 71.3545C75.2965 70.7386 75.2486 69.9312 75.1528 68.9321C75.0707 67.8782 75.0296 67.0913 75.0296 66.5712V66.2017C75.0023 65.6816 74.8243 65.23 74.4959 64.8468C74.1811 64.4636 73.791 64.272 73.3257 64.272C72.8604 64.272 72.5524 64.5389 72.4019 65.0726C72.265 65.4969 72.1966 66.0443 72.1966 66.7149C72.1966 66.975 72.2035 67.1939 72.2171 67.3719V67.9261L72.1761 68.8705C72.1487 69.1579 72.135 69.4727 72.135 69.8148C72.135 70.5539 72.1556 71.2861 72.1966 72.0114C72.2514 73.0379 72.3882 74.037 72.6072 75.0087C72.8262 76.0214 73.1478 76.5278 73.5721 76.5278ZM84.924 77.3079C84.3629 77.3079 83.9933 77.0342 83.8154 76.4868C83.747 76.3089 83.7128 76.0967 83.7128 75.8504C83.7128 75.6588 83.7333 75.4398 83.7744 75.1934C83.8154 74.9471 83.8428 74.7829 83.8565 74.7007C83.8702 74.5913 83.9181 74.5023 84.0002 74.4339C84.096 74.3654 84.2055 74.3244 84.3287 74.3107C84.4518 74.3107 84.5682 74.3517 84.6776 74.4339C84.7871 74.516 84.8624 74.6118 84.9035 74.7213C84.9308 74.8581 84.9445 75.214 84.9445 75.7888C85.013 75.8298 85.0814 75.8435 85.1498 75.8298C85.1909 75.7204 85.2388 75.5903 85.2935 75.4398C85.362 75.2756 85.4099 75.1387 85.4372 75.0292C85.7109 73.7701 85.9025 72.8189 86.012 72.1757C86.0942 71.7514 86.2173 71.3819 86.3816 71.0671C86.5595 70.7523 86.8195 70.4718 87.1617 70.2254C86.929 69.9243 86.7511 69.5137 86.6279 68.9937C86.5047 68.4599 86.4431 67.933 86.4431 67.4129V66.3659C86.4431 65.8869 86.4363 65.5311 86.4226 65.2984C86.4226 65.1342 86.3679 64.9221 86.2584 64.662C86.1626 64.402 86.0668 64.272 85.971 64.272C85.8478 64.2993 85.7315 64.3746 85.622 64.4978C85.5536 64.662 85.5125 64.8673 85.4988 65.1137C85.4851 65.3463 85.4783 65.49 85.4783 65.5448C85.4372 65.928 85.2319 66.0991 84.8624 66.058C84.7255 66.0443 84.6024 65.9759 84.4929 65.8527C84.3834 65.7159 84.3287 65.5653 84.3287 65.4011C84.3287 65.1137 84.4176 64.8126 84.5955 64.4978C84.7735 64.183 84.9856 63.923 85.2319 63.7177C85.492 63.5124 85.7383 63.4098 85.971 63.4098C86.1489 63.4098 86.3337 63.4713 86.5253 63.5945C86.7306 63.704 86.9016 63.8477 87.0385 64.0256C87.2985 64.3951 87.4285 64.9836 87.4285 65.7911C87.4285 66.0238 87.4149 66.3728 87.3875 66.8381L87.367 67.2487C87.367 67.7414 87.4012 68.2478 87.4696 68.7678C87.5517 69.2742 87.6817 69.6643 87.8597 69.938C87.8733 69.9517 87.9076 69.9585 87.9623 69.9585C88.0307 69.9585 88.0855 69.9654 88.1265 69.9791V69.8764C88.1265 68.8089 88.1128 67.454 88.0855 65.8117C88.0855 65.6474 88.0992 65.4011 88.1265 65.0726L88.1471 64.3746C88.1471 64.1693 88.1402 64.0119 88.1265 63.9024C88.1128 63.8614 88.106 63.8066 88.106 63.7382C88.106 63.4234 88.2771 63.2318 88.6192 63.1634C88.7287 63.136 88.8587 63.1839 89.0093 63.3071C89.1735 63.4166 89.283 63.5535 89.3377 63.7177C89.3788 63.8409 89.3993 63.9777 89.3993 64.1283C89.3993 64.2241 89.3925 64.2925 89.3788 64.3336C89.1872 65.2642 89.0914 66.1401 89.0914 66.9613V70.0817C89.283 70.1501 89.4472 70.198 89.5841 70.2254C89.8852 70.2665 90.0631 70.0749 90.1179 69.6506C90.1589 69.4727 90.2068 69.1305 90.2616 68.6241C90.2752 68.542 90.2821 68.4667 90.2821 68.3983C90.2821 68.3299 90.2889 68.2615 90.3026 68.193L90.4053 67.3308C90.4463 66.8518 90.5079 66.3796 90.59 65.9143C90.7543 65.0794 91.0896 64.3951 91.5959 63.8614C91.8012 63.6561 92.0476 63.5535 92.335 63.5535C92.554 63.5535 92.7593 63.615 92.9509 63.7382C93.1562 63.8477 93.3067 64.0051 93.4025 64.2104C93.5257 64.4841 93.6078 64.7647 93.6489 65.0521C93.7036 65.3258 93.7447 65.6816 93.772 66.1196C93.7857 66.2838 93.7447 66.4002 93.6489 66.4686C93.5531 66.5233 93.3957 66.5918 93.1767 66.6739C92.9851 66.6191 92.8345 66.5165 92.725 66.3659C92.6292 66.2154 92.595 66.0238 92.6224 65.7911C92.6635 65.4079 92.5471 65.0452 92.2734 64.7031C92.0544 64.8947 91.8902 65.1068 91.7807 65.3395C91.6712 65.5585 91.5891 65.8527 91.5344 66.2222C91.4796 66.5918 91.4317 66.8449 91.3907 66.9818C91.2812 67.5019 91.2264 67.8988 91.2264 68.1725C91.2264 68.4462 91.1854 68.7884 91.1032 69.199C91.0211 69.6095 90.9253 69.9448 90.8158 70.2049C90.7748 70.287 90.7543 70.3623 90.7543 70.4307C90.7543 70.5539 90.809 70.6702 90.9185 70.7797C91.1101 70.985 91.2538 71.3203 91.3496 71.7856C91.3907 72.0046 91.4112 72.2783 91.4112 72.6068L91.3907 73.4074C91.3633 73.818 91.3496 74.1259 91.3496 74.3312C91.3496 74.5776 91.3975 74.8102 91.4933 75.0292C91.6028 75.2345 91.7602 75.4877 91.9655 75.7888C92.0202 75.8709 92.1023 75.912 92.2118 75.912C92.3624 75.912 92.4924 75.8367 92.6019 75.6861C92.7524 75.344 92.8482 75.0566 92.8893 74.8239C92.9303 74.5913 92.9577 74.4407 92.9714 74.3723C93.0125 74.0301 93.1767 73.8591 93.4641 73.8591C93.5599 73.8591 93.6352 73.8659 93.6899 73.8796L93.9568 73.9822C94.0115 74.1875 94.0389 74.4133 94.0389 74.6597C94.0389 75.2756 93.8131 75.912 93.3614 76.5689C93.252 76.7331 93.0946 76.8631 92.8893 76.9589C92.6977 77.0547 92.4787 77.1026 92.2323 77.1026C91.9723 77.1026 91.7465 77.0479 91.5549 76.9384C91.3633 76.8152 91.2127 76.6578 91.1032 76.4662C90.9253 76.1104 90.7885 75.7819 90.6927 75.4808C90.5969 75.1798 90.549 74.865 90.549 74.5365C90.549 74.1259 90.5353 73.6743 90.5079 73.1816C90.4805 72.6889 90.46 72.3467 90.4463 72.1551L90.4053 71.6009C90.4053 71.3819 90.3231 71.2313 90.1589 71.1492C90.0084 71.0534 89.8236 70.985 89.6046 70.9439C89.3856 70.8892 89.2146 70.8481 89.0914 70.8207C89.064 71.2861 89.0503 71.6282 89.0503 71.8472C89.0503 72.1072 89.0367 72.4836 89.0093 72.9763C88.9819 73.7153 88.9751 74.2628 88.9888 74.6186C89.0024 74.7965 89.0298 74.995 89.0709 75.214C89.1119 75.4329 89.1393 75.5835 89.153 75.6656C89.2077 75.8572 89.2419 76.0009 89.2556 76.0967C89.283 76.2062 89.2967 76.2952 89.2967 76.3636C89.2967 76.5552 89.2419 76.7126 89.1325 76.8358C89.023 76.9453 88.8587 77.0068 88.6398 77.0205C88.4618 77.0342 88.3455 77 88.2908 76.9179C88.236 76.8221 88.2018 76.6715 88.1881 76.4662L88.2086 75.5014C88.2086 75.0908 88.195 74.4612 88.1676 73.6127C88.1402 73.0653 88.1265 72.6478 88.1265 72.3604V70.6976C87.976 70.6839 87.8528 70.7181 87.757 70.8002C87.6749 70.8823 87.5928 70.9918 87.5107 71.1287C87.3054 71.4435 87.1548 71.7788 87.059 72.1346C86.9632 72.4904 86.8674 72.9489 86.7716 73.5101L86.6895 73.9822C86.5253 74.9676 86.2926 75.8162 85.9915 76.5278C85.8957 76.7742 85.752 76.9658 85.5604 77.1026C85.3688 77.2395 85.1567 77.3079 84.924 77.3079ZM97.4823 76.9589C97.3044 76.9042 97.2086 76.7879 97.1949 76.6099V76.302C97.1676 75.7272 97.1402 74.865 97.1128 73.7153C97.0581 72.7163 97.0239 71.9498 97.0102 71.4161C96.9691 70.5812 96.9212 69.329 96.8665 67.6593C96.8528 67.3719 96.8391 66.975 96.8254 66.4686C96.8117 65.9622 96.8049 65.579 96.8049 65.319C96.7912 65.1684 96.7843 64.9563 96.7843 64.6826C96.7843 64.3678 96.798 64.1351 96.8254 63.9846C96.8802 63.5603 97.1128 63.3619 97.5234 63.3892C97.9066 63.3892 98.1119 63.6082 98.1393 64.0462V64.2925L98.1187 69.4658V71.9088V73.1405C98.1187 73.3321 98.1324 73.558 98.1598 73.818C98.1872 74.0643 98.2077 74.2423 98.2214 74.3517C98.2898 73.9549 98.3993 73.5511 98.5498 73.1405C98.7141 72.7163 98.8167 72.4562 98.8578 72.3604C99.0631 71.8677 99.2136 71.464 99.3094 71.1492C99.6379 70.0954 100.062 68.8021 100.582 67.2692C100.692 66.9544 100.815 66.5712 100.952 66.1196C101.321 64.9563 101.574 64.2035 101.711 63.8614C101.835 63.5329 102.019 63.3276 102.266 63.2455C102.389 63.2045 102.512 63.1839 102.635 63.1839C102.827 63.1839 103.025 63.2455 103.23 63.3687V64.3541C103.23 65.3805 103.251 66.4412 103.292 67.5361C103.306 67.7688 103.313 68.1178 103.313 68.5831V69.1784C103.313 69.3016 103.306 69.4658 103.292 69.6711C103.292 69.8764 103.299 70.1159 103.313 70.3896L103.374 75.9325C103.374 76.1378 103.326 76.3636 103.23 76.6099C103.189 76.7194 103.121 76.8084 103.025 76.8768C102.929 76.9316 102.827 76.9589 102.717 76.9589C102.334 76.9589 102.142 76.781 102.142 76.4252C102.142 76.0146 102.163 75.6177 102.204 75.2345C102.231 74.7144 102.245 74.3175 102.245 74.0438C102.218 71.334 102.183 69.3084 102.142 67.9672C102.142 67.7619 102.115 67.4266 102.06 66.9613L101.999 66.2222C101.876 66.3591 101.807 66.4481 101.793 66.4891L101.465 67.495C101.246 68.2067 101.075 68.7336 100.952 69.0758L99.1657 74.0438L98.2419 76.5689C98.1324 76.8563 97.9682 77 97.7492 77C97.7082 77 97.6192 76.9863 97.4823 76.9589ZM108.126 77.2874C107.701 77.2874 107.359 77.1916 107.099 77C106.839 76.8084 106.648 76.5073 106.524 76.0967C106.483 75.9735 106.463 75.8435 106.463 75.7067C106.463 75.5014 106.511 75.3371 106.607 75.214C106.702 75.0771 106.832 75.0155 106.997 75.0292C107.12 75.0292 107.236 75.0771 107.346 75.1729C107.455 75.2687 107.524 75.385 107.551 75.5219C107.592 75.6177 107.654 75.8572 107.736 76.2404C107.804 76.2541 107.914 76.261 108.064 76.261C108.625 76.261 109.022 76.0078 109.255 75.5014C109.378 75.2003 109.467 74.865 109.522 74.4955C109.59 74.1259 109.617 73.7906 109.604 73.4895C109.617 72.7368 109.474 71.9225 109.173 71.0466C109.05 70.677 108.851 70.4854 108.577 70.4718C108.085 70.4444 107.845 70.2665 107.859 69.938C107.845 69.7053 107.886 69.5411 107.982 69.4453C108.091 69.3358 108.263 69.2605 108.495 69.2195C108.632 69.1921 108.762 69.1374 108.885 69.0552C109.008 68.9731 109.097 68.8705 109.152 68.7473C109.33 68.3778 109.44 68.0767 109.481 67.844C109.522 67.5977 109.535 67.1187 109.522 66.407C109.508 66.1606 109.446 65.8732 109.337 65.5448C109.227 65.2163 109.097 64.9631 108.947 64.7852C108.783 64.5252 108.577 64.3951 108.331 64.3951C108.139 64.3951 107.996 64.4499 107.9 64.5594C107.818 64.6552 107.736 64.792 107.654 64.97C107.585 65.1342 107.524 65.2711 107.469 65.3805C107.346 65.5585 107.222 65.6474 107.099 65.6474C107.058 65.6474 106.997 65.6337 106.914 65.6064C106.778 65.579 106.682 65.5174 106.627 65.4216C106.572 65.3121 106.545 65.1616 106.545 64.97C106.545 64.5183 106.723 64.1283 107.079 63.7998C107.435 63.4577 107.852 63.2866 108.331 63.2866C109.138 63.2866 109.72 63.7177 110.076 64.5799C110.254 64.8536 110.391 65.1958 110.487 65.6064C110.596 66.0169 110.644 66.3796 110.63 66.6944C110.603 67.6114 110.466 68.3709 110.22 68.9731C110.001 69.3427 109.768 69.6164 109.522 69.7943C109.891 70.1912 110.165 70.7113 110.343 71.3545C110.521 71.9841 110.61 72.6684 110.61 73.4074C110.61 74.6255 110.404 75.5767 109.994 76.261C109.597 76.9453 108.974 77.2874 108.126 77.2874ZM117.387 77C116.922 77 116.689 75.8709 116.689 73.6127L116.71 72.4425L116.73 71.4982V71.4366V71.2313C116.744 71.1218 116.751 70.9918 116.751 70.8413C116.751 70.8139 116.73 70.7797 116.689 70.7386C116.648 70.6976 116.627 70.6634 116.627 70.636V70.6155C116.559 70.6428 116.436 70.6565 116.258 70.6565C116.08 70.6565 115.861 70.6291 115.601 70.5744C115.519 70.5607 115.3 70.5265 114.944 70.4718V72.8326C114.944 73.1884 114.965 73.7496 115.006 74.516C115.047 75.2687 115.067 75.8298 115.067 76.1994C115.067 76.4047 115.013 76.5826 114.903 76.7331C114.794 76.8837 114.65 76.9589 114.472 76.9589C114.212 76.9589 114.027 76.7057 113.918 76.1994C113.808 75.6793 113.753 75.0018 113.753 74.167L113.794 72.5041C113.808 72.0388 113.815 71.5461 113.815 71.026V70.677V70.3896C113.815 70.1707 113.808 70.027 113.794 69.9585V69.8559L113.856 68.6652C113.856 68.1451 113.836 67.3719 113.794 66.3454C113.753 65.319 113.733 64.5457 113.733 64.0256C113.733 63.8614 113.788 63.7177 113.897 63.5945C114.007 63.4713 114.143 63.4098 114.308 63.4098C114.746 63.4098 114.965 63.8203 114.965 64.6415L114.924 67.1871C114.896 67.9535 114.882 68.8089 114.882 69.7532C115.088 69.8217 115.457 69.8559 115.991 69.8559H116.751C116.778 69.7738 116.792 69.6916 116.792 69.6095C116.792 68.9526 116.751 67.9809 116.669 66.6944C116.573 65.49 116.525 64.5115 116.525 63.7587C116.525 63.6082 116.58 63.485 116.689 63.3892C116.812 63.2797 116.956 63.225 117.12 63.225C117.216 63.225 117.353 63.2592 117.531 63.3276L117.716 63.4098C117.716 65.3532 117.784 67.9467 117.921 71.1903L118.106 76.3841C118.106 76.5757 118.03 76.7263 117.88 76.8358C117.743 76.9453 117.579 77 117.387 77ZM122.254 76.9589C122.076 76.9042 121.98 76.7879 121.966 76.6099V76.302C121.939 75.7272 121.911 74.865 121.884 73.7153C121.829 72.7163 121.795 71.9498 121.781 71.4161C121.74 70.5812 121.692 69.329 121.638 67.6593C121.624 67.3719 121.61 66.975 121.597 66.4686C121.583 65.9622 121.576 65.579 121.576 65.319C121.562 65.1684 121.556 64.9563 121.556 64.6826C121.556 64.3678 121.569 64.1351 121.597 63.9846C121.651 63.5603 121.884 63.3619 122.295 63.3892C122.678 63.3892 122.883 63.6082 122.91 64.0462V64.2925L122.89 69.4658V71.9088V73.1405C122.89 73.3321 122.904 73.558 122.931 73.818C122.958 74.0643 122.979 74.2423 122.993 74.3517C123.061 73.9549 123.171 73.5511 123.321 73.1405C123.485 72.7163 123.588 72.4562 123.629 72.3604C123.834 71.8677 123.985 71.464 124.081 71.1492C124.409 70.0954 124.833 68.8021 125.353 67.2692C125.463 66.9544 125.586 66.5712 125.723 66.1196C126.092 64.9563 126.346 64.2035 126.483 63.8614C126.606 63.5329 126.79 63.3276 127.037 63.2455C127.16 63.2045 127.283 63.1839 127.406 63.1839C127.598 63.1839 127.796 63.2455 128.002 63.3687V64.3541C128.002 65.3805 128.022 66.4412 128.063 67.5361C128.077 67.7688 128.084 68.1178 128.084 68.5831V69.1784C128.084 69.3016 128.077 69.4658 128.063 69.6711C128.063 69.8764 128.07 70.1159 128.084 70.3896L128.145 75.9325C128.145 76.1378 128.097 76.3636 128.002 76.6099C127.961 76.7194 127.892 76.8084 127.796 76.8768C127.701 76.9316 127.598 76.9589 127.488 76.9589C127.105 76.9589 126.914 76.781 126.914 76.4252C126.914 76.0146 126.934 75.6177 126.975 75.2345C127.003 74.7144 127.016 74.3175 127.016 74.0438C126.989 71.334 126.955 69.3084 126.914 67.9672C126.914 67.7619 126.886 67.4266 126.832 66.9613L126.77 66.2222C126.647 66.3591 126.578 66.4481 126.565 66.4891L126.236 67.495C126.017 68.2067 125.846 68.7336 125.723 69.0758L123.937 74.0438L123.013 76.5689C122.904 76.8563 122.739 77 122.52 77C122.479 77 122.39 76.9863 122.254 76.9589ZM137.077 76.9589C136.899 76.9042 136.803 76.7879 136.79 76.6099V76.302C136.762 75.7272 136.735 74.865 136.707 73.7153C136.653 72.7163 136.619 71.9498 136.605 71.4161C136.564 70.5812 136.516 69.329 136.461 67.6593C136.447 67.3719 136.434 66.975 136.42 66.4686C136.406 65.9622 136.4 65.579 136.4 65.319C136.386 65.1684 136.379 64.9563 136.379 64.6826C136.379 64.3678 136.393 64.1351 136.42 63.9846C136.475 63.5603 136.707 63.3619 137.118 63.3892C137.501 63.3892 137.707 63.6082 137.734 64.0462V64.2925L137.713 69.4658V71.9088V73.1405C137.713 73.3321 137.727 73.558 137.754 73.818C137.782 74.0643 137.802 74.2423 137.816 74.3517C137.884 73.9549 137.994 73.5511 138.145 73.1405C138.309 72.7163 138.411 72.4562 138.452 72.3604C138.658 71.8677 138.808 71.464 138.904 71.1492C139.233 70.0954 139.657 68.8021 140.177 67.2692C140.286 66.9544 140.41 66.5712 140.546 66.1196C140.916 64.9563 141.169 64.2035 141.306 63.8614C141.429 63.5329 141.614 63.3276 141.86 63.2455C141.983 63.2045 142.107 63.1839 142.23 63.1839C142.421 63.1839 142.62 63.2455 142.825 63.3687V64.3541C142.825 65.3805 142.846 66.4412 142.887 67.5361C142.9 67.7688 142.907 68.1178 142.907 68.5831V69.1784C142.907 69.3016 142.9 69.4658 142.887 69.6711C142.887 69.8764 142.894 70.1159 142.907 70.3896L142.969 75.9325C142.969 76.1378 142.921 76.3636 142.825 76.6099C142.784 76.7194 142.716 76.8084 142.62 76.8768C142.524 76.9316 142.421 76.9589 142.312 76.9589C141.929 76.9589 141.737 76.781 141.737 76.4252C141.737 76.0146 141.758 75.6177 141.799 75.2345C141.826 74.7144 141.84 74.3175 141.84 74.0438C141.812 71.334 141.778 69.3084 141.737 67.9672C141.737 67.7619 141.71 67.4266 141.655 66.9613L141.593 66.2222C141.47 66.3591 141.402 66.4481 141.388 66.4891L141.06 67.495C140.841 68.2067 140.67 68.7336 140.546 69.0758L138.76 74.0438L137.837 76.5689C137.727 76.8563 137.563 77 137.344 77C137.303 77 137.214 76.9863 137.077 76.9589ZM152.496 77.2874C152.071 77.2874 151.729 77.1916 151.469 77C151.209 76.8084 151.018 76.5073 150.894 76.0967C150.853 75.9735 150.833 75.8435 150.833 75.7067C150.833 75.5014 150.881 75.3371 150.977 75.214C151.072 75.0771 151.202 75.0155 151.367 75.0292C151.49 75.0292 151.606 75.0771 151.716 75.1729C151.825 75.2687 151.894 75.385 151.921 75.5219C151.962 75.6177 152.024 75.8572 152.106 76.2404C152.174 76.2541 152.284 76.261 152.434 76.261C152.995 76.261 153.392 76.0078 153.625 75.5014C153.748 75.2003 153.837 74.865 153.892 74.4955C153.96 74.1259 153.988 73.7906 153.974 73.4895C153.988 72.7368 153.844 71.9225 153.543 71.0466C153.42 70.677 153.221 70.4854 152.947 70.4718C152.455 70.4444 152.215 70.2665 152.229 69.938C152.215 69.7053 152.256 69.5411 152.352 69.4453C152.462 69.3358 152.633 69.2605 152.865 69.2195C153.002 69.1921 153.132 69.1374 153.255 69.0552C153.379 68.9731 153.467 68.8705 153.522 68.7473C153.7 68.3778 153.81 68.0767 153.851 67.844C153.892 67.5977 153.905 67.1187 153.892 66.407C153.878 66.1606 153.816 65.8732 153.707 65.5448C153.597 65.2163 153.467 64.9631 153.317 64.7852C153.153 64.5252 152.947 64.3951 152.701 64.3951C152.509 64.3951 152.366 64.4499 152.27 64.5594C152.188 64.6552 152.106 64.792 152.024 64.97C151.955 65.1342 151.894 65.2711 151.839 65.3805C151.716 65.5585 151.592 65.6474 151.469 65.6474C151.428 65.6474 151.367 65.6337 151.285 65.6064C151.148 65.579 151.052 65.5174 150.997 65.4216C150.942 65.3121 150.915 65.1616 150.915 64.97C150.915 64.5183 151.093 64.1283 151.449 63.7998C151.805 63.4577 152.222 63.2866 152.701 63.2866C153.509 63.2866 154.09 63.7177 154.446 64.5799C154.624 64.8536 154.761 65.1958 154.857 65.6064C154.966 66.0169 155.014 66.3796 155 66.6944C154.973 67.6114 154.836 68.3709 154.59 68.9731C154.371 69.3427 154.138 69.6164 153.892 69.7943C154.261 70.1912 154.535 70.7113 154.713 71.3545C154.891 71.9841 154.98 72.6684 154.98 73.4074C154.98 74.6255 154.774 75.5767 154.364 76.261C153.967 76.9453 153.344 77.2874 152.496 77.2874ZM165.925 79.5251C165.815 79.5524 165.733 79.5661 165.678 79.5661C165.514 79.5661 165.398 79.4635 165.329 79.2582C165.274 79.094 165.247 78.8887 165.247 78.6423L165.268 77.2258C165.268 77.1437 165.261 77.0684 165.247 77C165.233 76.9316 165.22 76.8631 165.206 76.7947H162.845C162.982 76.7947 162.654 76.8631 161.86 77C161.08 77.1232 160.471 77.2053 160.033 77.2463L159.109 77.3285L158.082 77.4311C158.082 77.5543 158.082 77.7048 158.082 77.8828C158.096 78.0607 158.096 78.2728 158.082 78.5192V78.6218C158.082 78.8408 158.028 79.005 157.918 79.1145C157.809 79.224 157.706 79.2787 157.61 79.2787C157.555 79.2787 157.473 79.2514 157.364 79.1966C157.118 79.0187 156.981 78.7723 156.953 78.4576L156.892 76.9589C156.864 76.4252 157.083 76.1583 157.549 76.1583C157.809 76.1446 158.014 76.0762 158.165 75.953C158.315 75.8298 158.493 75.6382 158.698 75.3782C158.904 75.1045 159.061 74.8034 159.17 74.4749C159.294 74.1328 159.41 73.7222 159.519 73.2432C159.643 72.7231 159.732 72.2167 159.786 71.724C159.841 71.2313 159.909 70.5265 159.992 69.6095C160.115 68.1725 160.176 66.7286 160.176 65.2779L160.156 64.1283C160.156 63.8682 160.231 63.6561 160.382 63.4919C160.532 63.3139 160.737 63.225 160.998 63.225C161.08 63.225 161.141 63.2318 161.182 63.2455C161.812 63.355 162.325 63.4234 162.722 63.4508H162.825C163.003 63.4508 163.105 63.4166 163.133 63.3482C163.256 63.1839 163.406 63.1018 163.584 63.1018C163.707 63.1018 163.817 63.1292 163.913 63.1839C164.132 63.266 164.275 63.4713 164.344 63.7998L164.241 67.3103C164.241 69.2126 164.248 70.636 164.262 71.5803C164.262 72.073 164.275 72.8258 164.303 73.8385L164.323 74.9676C164.323 75.0771 164.33 75.1798 164.344 75.2756C164.357 75.3714 164.371 75.4672 164.385 75.563C164.659 75.5903 164.864 75.604 165.001 75.604C165.11 75.604 165.192 75.5972 165.247 75.5835C165.548 75.5424 165.815 75.6177 166.048 75.8093C166.294 75.9872 166.417 76.2199 166.417 76.5073C166.417 76.8768 166.39 77.4311 166.335 78.1702C166.335 78.3618 166.321 78.6355 166.294 78.9913C166.267 79.2787 166.143 79.4566 165.925 79.5251ZM160.012 76.261C160.779 76.1925 161.381 76.1309 161.819 76.0762C162.27 76.0078 162.715 75.9051 163.153 75.7683C163.29 74.1122 163.358 72.3399 163.358 70.4512C163.358 68.6994 163.29 66.7765 163.153 64.6826C162.797 64.6689 162.133 64.6347 161.162 64.5799L161.141 65.5448C161.032 67.6524 160.956 69.2263 160.915 70.2665C160.861 71.8267 160.594 73.3595 160.115 74.865C160.087 74.9471 160.026 75.1524 159.93 75.4808C159.848 75.7956 159.718 76.0693 159.54 76.302L160.012 76.261ZM170.895 77.3901C170.539 77.3901 170.21 77.2737 169.909 77.0411C169.608 76.8221 169.362 76.521 169.17 76.1378C168.773 75.3029 168.527 74.3928 168.431 73.4074C168.308 72.4768 168.246 71.5803 168.246 70.7181C168.246 70.5539 168.253 70.417 168.267 70.3075V69.938C168.267 69.8696 168.26 69.8354 168.246 69.8354V69.4658L168.267 68.0288C168.281 67.5908 168.335 66.8929 168.431 65.9348C168.5 65.2779 168.657 64.6415 168.903 64.0256C168.999 63.7519 169.122 63.5466 169.273 63.4098C169.423 63.2592 169.594 63.1839 169.786 63.1839C170.334 63.1839 170.826 63.2866 171.264 63.4919C171.702 63.6835 172.072 63.9572 172.373 64.313C172.646 64.6552 172.879 65.0794 173.071 65.5858C173.262 66.0785 173.399 66.6054 173.481 67.1666C173.563 67.7414 173.604 68.3504 173.604 68.9937V69.1579C173.604 69.5822 173.611 69.9654 173.625 70.3075L173.646 71.4777C173.646 75.4193 172.729 77.3901 170.895 77.3901ZM170.813 76.5278C171.059 76.5278 171.285 76.432 171.49 76.2404C171.695 76.0351 171.853 75.7614 171.962 75.4193C172.222 74.7213 172.38 73.9685 172.434 73.1611C172.503 72.4631 172.537 71.8609 172.537 71.3545C172.537 70.7386 172.489 69.9312 172.393 68.9321C172.311 67.8782 172.27 67.0913 172.27 66.5712V66.2017C172.243 65.6816 172.065 65.23 171.736 64.8468C171.422 64.4636 171.031 64.272 170.566 64.272C170.101 64.272 169.793 64.5389 169.642 65.0726C169.505 65.4969 169.437 66.0443 169.437 66.7149C169.437 66.975 169.444 67.1939 169.458 67.3719V67.9261L169.417 68.8705C169.389 69.1579 169.375 69.4727 169.375 69.8148C169.375 70.5539 169.396 71.2861 169.437 72.0114C169.492 73.0379 169.629 74.037 169.848 75.0087C170.067 76.0214 170.388 76.5278 170.813 76.5278ZM177.369 77.1437C177.191 76.4183 177.102 75.4124 177.102 74.1259L177.143 72.2988C177.17 71.7514 177.184 71.1424 177.184 70.4718C177.102 70.2801 177.061 70.1091 177.061 69.9585V69.8969C177.197 69.6369 177.266 69.0484 177.266 68.1314L177.286 67.1871C177.3 66.886 177.307 66.5507 177.307 66.1812C177.307 65.3737 177.252 64.7373 177.143 64.272C177.184 64.0804 177.252 63.9161 177.348 63.7793C177.444 63.6287 177.56 63.5535 177.697 63.5535H178.6C178.983 63.5535 179.319 63.6424 179.606 63.8203C179.894 63.9846 180.113 64.2241 180.263 64.5389C180.537 65.1 180.674 65.7638 180.674 66.5302C180.674 67.0776 180.667 67.5087 180.653 67.8235C180.626 68.2204 180.557 68.5831 180.448 68.9115C180.407 69.0895 180.345 69.24 180.263 69.3632C180.195 69.4727 180.092 69.6095 179.955 69.7738C179.764 70.0064 179.449 70.2254 179.011 70.4307C178.833 70.5265 178.6 70.6155 178.313 70.6976V72.8942L178.354 74.208L178.395 74.8444C178.45 75.6109 178.477 76.261 178.477 76.7947C178.477 76.9589 178.409 77.0958 178.272 77.2053C178.135 77.3285 177.978 77.3901 177.8 77.3901L177.369 77.1437ZM178.333 69.8559C179.141 69.7327 179.545 68.5762 179.545 66.3865C179.545 65.9896 179.524 65.6816 179.483 65.4627C179.442 65.2984 179.387 65.1684 179.319 65.0726C179.25 64.9631 179.148 64.8742 179.011 64.8057C178.86 64.7236 178.696 64.6826 178.518 64.6826C178.518 64.6689 178.443 64.662 178.292 64.662V65.8322C178.292 66.6397 178.299 67.3582 178.313 67.9877C178.313 68.6994 178.32 69.1647 178.333 69.3837V69.8148V69.8559ZM186.119 77.3901C185.763 77.3901 185.435 77.2737 185.134 77.0411C184.833 76.8221 184.586 76.521 184.395 76.1378C183.998 75.3029 183.751 74.3928 183.656 73.4074C183.532 72.4768 183.471 71.5803 183.471 70.7181C183.471 70.5539 183.478 70.417 183.491 70.3075V69.938C183.491 69.8696 183.484 69.8354 183.471 69.8354V69.4658L183.491 68.0288C183.505 67.5908 183.56 66.8929 183.656 65.9348C183.724 65.2779 183.881 64.6415 184.128 64.0256C184.224 63.7519 184.347 63.5466 184.497 63.4098C184.648 63.2592 184.819 63.1839 185.01 63.1839C185.558 63.1839 186.051 63.2866 186.489 63.4919C186.927 63.6835 187.296 63.9572 187.597 64.313C187.871 64.6552 188.104 65.0794 188.295 65.5858C188.487 66.0785 188.624 66.6054 188.706 67.1666C188.788 67.7414 188.829 68.3504 188.829 68.9937V69.1579C188.829 69.5822 188.836 69.9654 188.849 70.3075L188.87 71.4777C188.87 75.4193 187.953 77.3901 186.119 77.3901ZM186.037 76.5278C186.283 76.5278 186.509 76.432 186.714 76.2404C186.92 76.0351 187.077 75.7614 187.187 75.4193C187.447 74.7213 187.604 73.9685 187.659 73.1611C187.727 72.4631 187.761 71.8609 187.761 71.3545C187.761 70.7386 187.713 69.9312 187.618 68.9321C187.536 67.8782 187.494 67.0913 187.494 66.5712V66.2017C187.467 65.6816 187.289 65.23 186.961 64.8468C186.646 64.4636 186.256 64.272 185.791 64.272C185.325 64.272 185.017 64.5389 184.867 65.0726C184.73 65.4969 184.661 66.0443 184.661 66.7149C184.661 66.975 184.668 67.1939 184.682 67.3719V67.9261L184.641 68.8705C184.614 69.1579 184.6 69.4727 184.6 69.8148C184.6 70.5539 184.62 71.2861 184.661 72.0114C184.716 73.0379 184.853 74.037 185.072 75.0087C185.291 76.0214 185.613 76.5278 186.037 76.5278ZM192.737 77.2053C192.436 77.2053 192.251 77.0753 192.182 76.8152C192.128 76.651 192.1 76.4183 192.1 76.1172C192.1 75.5287 192.128 74.8034 192.182 73.9412C192.251 73.12 192.285 72.3878 192.285 71.7446C192.285 71.0192 192.305 69.9312 192.347 68.4804L192.388 65.2368C192.388 65.1137 192.367 64.9289 192.326 64.6826L192.264 64.1693V64.0667C192.264 63.7519 192.312 63.5192 192.408 63.3687C192.504 63.2181 192.682 63.1429 192.942 63.1429C193.298 63.1429 193.688 63.2455 194.112 63.4508C194.536 63.6561 194.844 63.9161 195.036 64.2309C195.433 64.8878 195.631 65.709 195.631 66.6944C195.631 67.4335 195.57 68.0562 195.446 68.5625C195.323 69.0552 195.111 69.5137 194.81 69.938C195.18 70.2938 195.426 70.7523 195.549 71.3134C195.686 71.8609 195.754 72.552 195.754 73.3869C195.754 74.2217 195.611 74.9471 195.323 75.563C194.995 76.261 194.516 76.74 193.886 77C193.503 77.1369 193.12 77.2053 192.737 77.2053ZM193.394 69.3427C194.105 69.329 194.461 68.501 194.461 66.8586C194.461 65.0931 194.18 64.1693 193.619 64.0872C193.469 64.402 193.394 65.141 193.394 66.3044V69.3427ZM193.27 76.1583C193.708 76.0625 194.05 75.8025 194.297 75.3782C194.543 74.9539 194.666 74.4681 194.666 73.9206C194.666 73.3458 194.632 72.8394 194.564 72.4015C194.509 72.0593 194.434 71.7788 194.338 71.5598C194.256 71.3271 194.139 71.115 193.989 70.9234C193.825 70.7181 193.633 70.5949 193.414 70.5539C193.359 71.334 193.332 72.3673 193.332 73.6538C193.332 73.7359 193.318 73.9959 193.291 74.4339L193.25 75.1319C193.25 75.1592 193.257 75.1798 193.27 75.1934V75.2345V76.1583ZM199.453 76.9179C199.179 76.9042 199.022 76.7605 198.981 76.4868L199.042 71.3545V69.7738V66.7355C199.042 65.3942 199.049 64.3883 199.063 63.7177C199.063 63.6356 199.104 63.5603 199.186 63.4919C199.282 63.4234 199.398 63.3892 199.535 63.3892C199.644 63.3892 199.754 63.4234 199.863 63.4919C199.973 63.5603 200.055 63.6493 200.11 63.7587C200.233 63.9777 200.295 64.2993 200.295 64.7236C200.295 65.0247 200.247 65.4969 200.151 66.1401C200.11 66.4275 200.082 66.7423 200.069 67.0845C200.055 67.4266 200.048 67.6524 200.048 67.7619C200.021 67.9535 199.987 68.2615 199.946 68.6857C199.918 69.11 199.918 69.3153 199.946 69.3016C200.151 69.2742 200.404 69.3221 200.705 69.4453C200.938 69.5274 201.075 69.5685 201.116 69.5685C201.718 69.678 202.176 70.0406 202.491 70.6565C202.82 71.2587 203.011 71.8814 203.066 72.5247C203.08 72.6752 203.086 72.8942 203.086 73.1816C203.086 73.8659 203.025 74.4544 202.902 74.9471C202.765 75.9051 202.19 76.562 201.177 76.9179C201.013 76.9726 200.801 77 200.541 77C200.349 77 200.137 76.9932 199.904 76.9795C199.685 76.9521 199.535 76.9316 199.453 76.9179ZM200.13 76.0967C200.281 76.1378 200.418 76.1583 200.541 76.1583C200.815 76.1583 201.047 76.083 201.239 75.9325C201.43 75.7683 201.554 75.5561 201.608 75.2961C201.677 74.9813 201.752 74.5091 201.834 73.8796C201.862 73.5785 201.889 73.339 201.916 73.1611C201.93 73.0789 201.937 72.9558 201.937 72.7915C201.937 72.2167 201.827 71.6898 201.608 71.2108C201.389 70.7181 201.075 70.4444 200.664 70.3896C200.377 70.3349 200.164 70.3007 200.028 70.287L200.13 76.0967ZM206.987 77.2669C206.809 77.2669 206.645 77.2053 206.494 77.0821C206.357 76.9589 206.282 76.8084 206.268 76.6305V76.0967V75.6861C206.255 75.563 206.248 75.4193 206.248 75.255C206.248 74.9676 206.227 74.5297 206.186 73.9412L206.145 72.6273C206.145 71.9567 206.166 70.9576 206.207 69.6301C206.261 68.4394 206.289 67.4403 206.289 66.6328C206.289 66.4412 206.268 66.1538 206.227 65.7706C206.186 65.3737 206.166 65.0863 206.166 64.9084C206.166 63.9367 206.453 63.4508 207.028 63.4508C207.48 63.4508 208 63.5398 208.588 63.7177C209.19 63.8956 209.491 64.1077 209.491 64.3541C209.491 64.4909 209.43 64.621 209.307 64.7441C209.197 64.8536 209.06 64.9426 208.896 65.011C208.321 64.8057 207.801 64.6689 207.336 64.6004C207.35 64.8057 207.356 65.1 207.356 65.4832C207.356 66.0306 207.35 66.5233 207.336 66.9613C207.295 67.6182 207.274 68.1109 207.274 68.4394L207.336 68.7678L207.664 68.7473C207.774 68.7336 207.911 68.7268 208.075 68.7268C208.732 68.7268 209.06 68.9184 209.06 69.3016C209.06 69.4521 208.999 69.5822 208.876 69.6916C208.752 69.7875 208.595 69.8354 208.403 69.8354C208.157 69.8354 207.965 69.8217 207.829 69.7943H207.315C207.343 70.1501 207.356 70.6702 207.356 71.3545C207.356 72.0388 207.35 72.6547 207.336 73.2021C207.295 74.037 207.274 74.6597 207.274 75.0703C207.274 75.8367 207.288 76.2199 207.315 76.2199L207.993 76.1994C208.225 76.1857 208.506 76.1788 208.834 76.1788C209.355 76.1788 209.615 76.3431 209.615 76.6715C209.615 76.8631 209.526 77.0068 209.348 77.1026C209.183 77.2121 208.978 77.2669 208.732 77.2669H206.987Z" fill="#E87383"/>
</svg>
