<svg width="24" height="24" viewBox="0 0 24 24" fill="none" xmlns="http://www.w3.org/2000/svg">
<path d="M17.5034 0H6.49657C2.9143 0 0 2.9143 0 6.49657V17.5036C0 21.0857 2.9143 24 6.49657 24H17.5036C21.0857 24 24 21.0857 24 17.5036V6.49657C24 2.9143 21.0857 0 17.5034 0V0ZM22.593 17.5036C22.593 20.3098 20.3098 22.593 17.5034 22.593H6.49657C3.69012 22.593 1.40698 20.3098 1.40698 17.5036V6.49657C1.40698 3.69012 3.69012 1.40698 6.49657 1.40698H17.5036C20.3098 1.40698 22.593 3.69012 22.593 6.49657V17.5036Z" fill="white"/>
<path d="M11.9998 5.4375C8.38128 5.4375 5.4375 8.38128 5.4375 11.9998C5.4375 15.6183 8.38128 18.5621 11.9998 18.5621C15.6183 18.5621 18.5621 15.6183 18.5621 11.9998C18.5621 8.38128 15.6183 5.4375 11.9998 5.4375V5.4375ZM11.9998 17.1551C9.15728 17.1551 6.84448 14.8425 6.84448 11.9998C6.84448 9.15728 9.15728 6.84448 11.9998 6.84448C14.8425 6.84448 17.1551 9.15728 17.1551 11.9998C17.1551 14.8425 14.8425 17.1551 11.9998 17.1551V17.1551Z" fill="white"/>
<path d="M18.7194 3.10742C17.65 3.10742 16.7803 3.97735 16.7803 5.04651C16.7803 6.11584 17.65 6.98577 18.7194 6.98577C19.7887 6.98577 20.6586 6.11584 20.6586 5.04651C20.6586 3.97717 19.7887 3.10742 18.7194 3.10742ZM18.7194 5.57861C18.426 5.57861 18.1873 5.33984 18.1873 5.04651C18.1873 4.75299 18.426 4.5144 18.7194 4.5144C19.0129 4.5144 19.2516 4.75299 19.2516 5.04651C19.2516 5.33984 19.0129 5.57861 18.7194 5.57861Z" fill="white"/>
</svg>
