<svg width="264" height="387" viewBox="0 0 264 387" fill="none" xmlns="http://www.w3.org/2000/svg">
<path fill-rule="evenodd" clip-rule="evenodd" d="M-17.7782 20.4552C17.5937 24.0548 47.2714 42.8403 73.4238 62.4771C96.7213 79.9703 101.647 107.345 123.143 126.268C160.166 158.859 231.847 169.5 243.777 212.438C254.993 252.808 221.454 300.197 177.179 320.756C132.648 341.433 76.0357 305.622 25.4908 313.795C-20.2678 321.195 -50.324 374.287 -95.7286 364.889C-140.301 355.663 -146.973 305.807 -169.439 273.447C-187.626 247.249 -211.937 223.039 -214.889 193.243C-217.779 164.079 -201.521 136.996 -185.551 110.863C-169.683 84.8981 -152.651 58.6116 -122.774 42.5113C-92.1772 26.0238 -54.5484 16.7133 -17.7782 20.4552Z" fill="#E87383"/>
<path fill-rule="evenodd" clip-rule="evenodd" d="M-25.7549 5.4132C12.3607 9.29198 44.3404 29.5346 72.5213 50.6945C97.6258 69.5446 102.934 99.0422 126.097 119.433C165.992 154.552 243.233 166.019 256.088 212.287C268.174 255.789 232.034 306.854 184.324 329.007C136.339 351.288 75.3358 312.699 20.8704 321.506C-28.4375 329.48 -60.825 386.69 -109.751 376.563C-157.781 366.621 -164.971 312.899 -189.179 278.028C-208.777 249.798 -234.973 223.71 -238.155 191.603C-241.269 160.177 -223.75 130.993 -206.541 102.833C-189.442 74.8546 -171.09 46.5292 -138.894 29.1801C-105.925 11.4137 -65.3771 1.38109 -25.7549 5.4132Z" stroke="#4D9C8C"/>
</svg>
