<svg width="25" height="17" viewBox="0 0 25 17" fill="none" xmlns="http://www.w3.org/2000/svg">
<path d="M12.651 16.3125C16.2677 16.3125 14.9781 14.0229 15.2573 13.3646C15.2531 12.8729 15.249 12.4 15.2656 12.1125C15.4948 12.1771 16.0354 12.451 17.1521 13.5365C18.876 15.276 19.3167 16.3125 20.7094 16.3125H23.2729C24.0854 16.3125 24.5083 15.976 24.7198 15.6937C24.924 15.4208 25.124 14.9417 24.9052 14.1958C24.3333 12.4 20.9979 9.29896 20.7906 8.97188C20.8219 8.91146 20.8719 8.83125 20.8979 8.78958H20.8958C21.5542 7.91979 24.0667 4.15521 24.4365 2.64896C24.4375 2.64687 24.4385 2.64375 24.4385 2.64062C24.6385 1.95312 24.4552 1.50729 24.2656 1.25521C23.9802 0.878125 23.526 0.6875 22.9125 0.6875H20.349C19.4906 0.6875 18.8396 1.11979 18.5104 1.90833C17.9594 3.30937 16.4115 6.19062 15.251 7.21042C15.2156 5.76562 15.2396 4.6625 15.2583 3.84271C15.2958 2.24375 15.4167 0.6875 13.7573 0.6875H9.72812C8.68854 0.6875 7.69375 1.82292 8.77083 3.17083C9.7125 4.35208 9.10937 5.01042 9.3125 8.2875C8.52083 7.43854 7.1125 5.14583 6.11667 2.21562C5.8375 1.42292 5.41458 0.688542 4.22396 0.688542H1.66042C0.620833 0.688542 0 1.25521 0 2.20417C0 4.33542 4.71771 16.3125 12.651 16.3125ZM4.22396 2.25104C4.45 2.25104 4.47292 2.25104 4.64062 2.72708C5.66042 5.73021 7.94792 10.174 9.61875 10.174C10.874 10.174 10.874 8.8875 10.874 8.40312L10.8729 4.54687C10.8042 3.27083 10.3396 2.63542 10.0344 2.25L13.6885 2.25417C13.6906 2.27188 13.6677 6.51979 13.699 7.54896C13.699 9.01042 14.8594 9.84792 16.6708 8.01458C18.5823 5.85729 19.9042 2.63229 19.9573 2.50104C20.0354 2.31354 20.1031 2.25 20.349 2.25H22.9125H22.9229C22.9219 2.25312 22.9219 2.25625 22.9208 2.25937C22.6865 3.35312 20.3729 6.83854 19.599 7.92083C19.5865 7.9375 19.575 7.95521 19.5635 7.97292C19.2229 8.52917 18.9458 9.14375 19.6104 10.0083H19.6115C19.6719 10.0812 19.8292 10.2521 20.0583 10.4896C20.7708 11.225 23.2146 13.7396 23.4312 14.7396C23.2875 14.7625 23.1313 14.7458 20.7094 14.751C20.1938 14.751 19.7906 13.9802 18.2521 12.4281C16.8687 11.0823 15.9708 10.5323 15.1531 10.5323C13.5656 10.5323 13.6812 11.8208 13.6958 13.3792C13.701 15.0687 13.6906 14.5344 13.7021 14.6406C13.6094 14.6771 13.3438 14.75 12.651 14.75C6.04167 14.75 1.7375 4.25938 1.57187 2.25417C1.62917 2.24896 2.41771 2.25208 4.22396 2.25104Z" fill="#E87383"/>
</svg>
