<svg width="25" height="25" viewBox="0 0 25 25" fill="none" xmlns="http://www.w3.org/2000/svg">
<g clip-path="url(#clip0_132:428)">
<path d="M24.614 2.48337C24.3086 2.10991 23.8512 1.9043 23.326 1.9043C23.0404 1.9043 22.7379 1.96438 22.427 2.08321L1.26499 10.1614C0.141946 10.59 -0.00930676 11.2331 0.000420707 11.5784C0.0101482 11.9236 0.197641 12.5572 1.34319 12.9217C1.35006 12.9238 1.35693 12.9259 1.36379 12.9278L5.75337 14.184L8.12725 20.9723C8.45093 21.8977 9.17744 22.4726 10.0235 22.4726C10.557 22.4726 11.0817 22.249 11.541 21.8264L14.2561 19.3264L18.1942 22.4974C18.1946 22.4977 18.1952 22.4979 18.1956 22.4983L18.233 22.5285C18.2364 22.5311 18.24 22.534 18.2434 22.5367C18.6812 22.8762 19.159 23.0555 19.6257 23.0556H19.6259C20.5378 23.0556 21.2639 22.3806 21.4754 21.3362L24.9428 4.21505C25.0821 3.52783 24.9653 2.9129 24.614 2.48337V2.48337ZM7.22183 13.9454L15.6907 9.61895L10.4174 15.2222C10.331 15.3139 10.2698 15.4263 10.2396 15.5485L9.22283 19.6672L7.22183 13.9454ZM10.5486 20.7487C10.5135 20.7809 10.4782 20.8097 10.443 20.8363L11.3863 17.0155L13.1024 18.3973L10.5486 20.7487ZM23.5072 3.92418L20.0398 21.0455C20.0064 21.2093 19.8998 21.5906 19.6257 21.5906C19.4903 21.5906 19.3201 21.5168 19.146 21.3827L14.6836 17.7896C14.683 17.7891 14.6822 17.7885 14.6815 17.7881L12.0263 15.65L19.652 7.547C19.8962 7.2876 19.9183 6.8903 19.7045 6.60534C19.4905 6.32038 19.1027 6.23074 18.7855 6.39286L6.24317 12.8004L1.7939 11.5274L22.9494 3.45173C23.1282 3.38345 23.2529 3.36914 23.326 3.36914C23.3708 3.36914 23.4505 3.37448 23.4801 3.41091C23.519 3.4584 23.5686 3.62034 23.5072 3.92418V3.92418Z" fill="#E87383"/>
</g>
<defs>
<clipPath id="clip0_132:428">
<rect width="25" height="25" fill="white"/>
</clipPath>
</defs>
</svg>
