<svg width="37" height="60" viewBox="0 0 37 60" fill="none" xmlns="http://www.w3.org/2000/svg">
<path d="M4.9734 32.7006C9.32868 23.8478 15.8473 17.2546 24.7925 13.1758C10.6221 25.2847 -0.0514851 41.1711 8.89372 60.0007C1.99166 52.0806 1.81425 42.295 4.9734 32.7006Z" fill="#E87383"/>
<path d="M0.0232115 12.9441C0.111849 12.0179 0.27842 11.1011 0.521118 10.2037C1.47457 10.1331 2.43254 10.2491 3.34261 10.5455C4.6303 10.9337 5.91227 12.0229 6.92526 14.0217C7.31788 14.9846 7.58344 15.9956 7.71505 17.0287C7.74174 17.9115 7.6649 18.7945 7.48613 19.659C7.30101 20.5133 6.95936 21.325 6.47886 22.0518C6.53188 25.6299 5.90227 29.1846 4.62458 32.5211C5.34904 29.1248 5.41513 25.6185 4.81917 22.1967C3.14802 20.7193 1.52266 18.9464 0.750047 16.8896C0.169051 15.6621 -0.0816703 14.3011 0.0232115 12.9441Z" fill="#E87383"/>
<path d="M9.75242 3.75451C10.0637 2.87977 10.4465 2.03288 10.897 1.22266C11.8391 1.39818 12.7389 1.75622 13.5468 2.27711C14.6915 2.97236 15.6644 4.35706 16.1451 6.55868C16.2765 7.58761 16.2765 8.62938 16.1451 9.65832C15.9609 10.5253 15.6766 11.3673 15.2981 12.167C14.9082 12.9467 14.3784 13.6461 13.7357 14.2296C12.8959 17.7045 11.4036 20.9834 9.34036 23.8877C10.8878 20.772 11.8227 17.3817 12.0932 13.9051C10.8398 12.0511 9.70664 9.91903 9.46627 7.72901C9.21521 6.40172 9.31391 5.03091 9.75242 3.75451Z" fill="#E87383"/>
<path d="M24.2488 1.34994C25.0042 2.13788 25.4907 3.42988 25.422 5.2607C25.3231 6.09777 25.1152 6.91793 24.8039 7.69986C24.4776 8.33769 24.076 8.93302 23.6078 9.47274C23.1433 10.0034 22.5866 10.4433 21.9653 10.7705C20.5995 13.3275 18.7615 15.5952 16.5512 17.4507C18.3943 15.3314 19.8132 12.8698 20.7291 10.2027C20.0322 8.49545 19.7534 6.64291 19.9164 4.803C19.9881 3.70665 20.3455 2.64912 20.9523 1.73812C21.3767 1.11804 21.8535 0.536481 22.3773 0C23.0799 0.326032 23.715 0.784121 24.2488 1.34994Z" fill="#E87383"/>
<path d="M8.93907 56.0194C8.94434 52.4446 9.62825 48.9042 10.9536 45.5907C10.7684 44.738 10.7412 43.8579 10.8735 42.9951C11.0157 42.1231 11.2597 41.2713 11.6003 40.4575C12.0908 39.5468 12.6947 38.7037 13.3974 37.9488C15.0628 36.4482 16.6481 35.9036 17.9758 36.0137C18.9319 36.0703 19.8684 36.3122 20.7344 36.7263C20.6398 37.6534 20.4655 38.5704 20.2136 39.4668C19.8325 40.7694 19.1177 41.9467 18.1418 42.8793C16.6824 44.5131 14.5305 45.5733 12.4473 46.3555C10.6728 49.3174 9.48141 52.5991 8.93907 56.0194Z" fill="#E87383"/>
<path d="M6.5354 39.8548C8.28171 36.7464 10.6038 34.0081 13.3745 31.7899C13.6282 30.9481 14.0359 30.1619 14.5764 29.4724C15.1227 28.7828 15.7491 28.1622 16.4421 27.6242C17.3126 27.0788 18.2495 26.6503 19.2292 26.3496C21.4097 25.8745 23.058 26.1932 24.1626 26.929C24.9642 27.4582 25.6594 28.1365 26.2114 28.9278C25.6751 29.6869 25.0758 30.3982 24.4201 31.0541C23.4518 31.9949 22.2555 32.6603 20.9519 32.9834C18.8859 33.6729 16.4993 33.5165 14.3131 33.1341C11.3147 34.8428 8.67318 37.1254 6.5354 39.8548Z" fill="#E87383"/>
<path d="M23.4985 19.3691C24.007 18.8107 24.6122 18.3512 25.2841 18.0134C25.9683 17.6804 26.6886 17.4295 27.4303 17.266C28.3173 17.1608 29.2143 17.1764 30.0973 17.3124C31.9802 17.7585 33.1591 18.6275 33.7486 19.6299C34.1865 20.3614 34.48 21.1721 34.6128 22.0169C33.9124 22.4094 33.1812 22.7427 32.4266 23.0134C31.3196 23.3853 30.1357 23.4572 28.9927 23.222C27.1098 22.9844 25.2899 21.9647 23.716 20.8465C20.733 21.0479 17.8173 21.835 15.1313 23.164C17.6526 21.3648 20.4939 20.0762 23.4985 19.3691Z" fill="#E87383"/>
<path d="M25.4045 12.8918C25.6522 11.8197 26.1552 10.8251 26.8696 9.99495C27.3804 9.42343 27.9568 8.91578 28.5866 8.48279C29.3697 8.05291 30.2046 7.72768 31.0704 7.51524C32.9819 7.21396 34.4012 7.57318 35.3226 8.2858C35.9925 8.78612 36.5617 9.41149 36.9995 10.1282C36.4992 10.7552 35.9458 11.3368 35.3455 11.8663C34.4589 12.6359 33.3866 13.1537 32.2379 13.3669C30.0345 13.9521 27.5335 13.4828 25.4045 12.8918Z" fill="#E87383"/>
</svg>
