<svg width="25" height="25" viewBox="0 0 25 25" fill="none" xmlns="http://www.w3.org/2000/svg">
<path d="M23.9494 8.82359C23.9496 6.47564 23.0293 4.26235 21.3583 2.59132C19.6873 0.920296 17.474 0 15.1258 0H9.8978C9.89761 0 9.89761 0 9.89761 0C7.54986 0 5.33638 0.920296 3.66554 2.59113C1.99451 4.26235 1.07422 6.47564 1.07422 8.82359V12.9332C1.07422 14.7516 1.62888 16.5007 2.6783 17.9916C3.60413 19.3069 4.84924 20.3344 6.30093 20.9858V23.3463C6.30093 24.5668 6.98433 25 7.5695 25C7.98759 25 8.40569 24.7936 8.81271 24.3868L11.4426 21.7569L15.126 21.7567C17.474 21.7567 19.6873 20.8364 21.3583 19.1656C23.0293 17.4946 23.9496 15.2811 23.9496 12.9332L23.9494 8.82359ZM15.126 20.2919L11.1393 20.2921C10.9449 20.2921 10.7588 20.3691 10.6215 20.5065L7.77702 23.3509C7.7734 23.3547 7.76958 23.3583 7.76577 23.362C7.76577 23.3568 7.76577 23.3515 7.76577 23.3463V20.4969C7.76577 20.1931 7.57828 19.9209 7.29446 19.8126C4.45023 18.7273 2.53925 15.9626 2.53925 12.9332V8.82359C2.53925 6.86684 3.30715 5.02129 4.70142 3.62682C6.0957 2.23274 7.94106 1.46484 9.8978 1.46484H15.1258C17.0826 1.46484 18.9281 2.23274 20.3224 3.62701C21.7169 5.02148 22.4848 6.86703 22.4846 8.82359L22.4848 12.9332C22.4846 16.9909 19.1835 20.2919 15.126 20.2919Z" fill="#E87383"/>
<path d="M14.4596 11.9787C14.1737 11.6926 13.71 11.6926 13.4239 11.9787L12.8323 12.5701L10.5396 10.2777L11.1313 9.68623C11.2686 9.5489 11.3459 9.36256 11.3459 9.1682C11.3459 8.97403 11.2686 8.78768 11.1313 8.65035L8.35762 5.87669C8.22029 5.73936 8.03413 5.66211 7.83977 5.66211C7.6456 5.66211 7.45926 5.73936 7.32193 5.87669L5.38025 7.81837C4.33025 8.86836 4.33025 10.5772 5.38044 11.6277L11.4822 17.7299C11.9896 18.2371 12.6661 18.5163 13.3869 18.5163C14.1079 18.5163 14.7844 18.2371 15.2918 17.7299L17.2335 15.7884C17.3708 15.6509 17.448 15.4647 17.448 15.2704C17.448 15.0762 17.3708 14.8899 17.2335 14.7525L14.4596 11.9787ZM14.2559 16.6938C14.0253 16.9244 13.7167 17.0515 13.3869 17.0515C13.0571 17.0515 12.7485 16.9244 12.5179 16.6938L6.41632 10.5918C5.93719 10.1127 5.937 9.33299 6.41613 8.85406L7.83977 7.43022L9.57756 9.1682L8.9859 9.75967C8.84857 9.897 8.77132 10.0833 8.77132 10.2775C8.77132 10.4719 8.84857 10.658 8.9859 10.7955L12.3142 14.1239C12.6003 14.4098 13.064 14.41 13.3501 14.1239L13.9418 13.5324L15.6795 15.2702L14.2559 16.6938Z" fill="#E87383"/>
<path d="M12.6895 3.24023C12.2849 3.24023 11.957 3.56811 11.957 3.97266C11.957 4.37701 12.2849 4.70508 12.6895 4.70508C14.3656 4.70508 15.9417 5.35777 17.1269 6.54319C18.3123 7.72842 18.965 9.30427 18.965 10.9806C18.965 11.385 19.2929 11.7131 19.6974 11.7131C20.1018 11.7131 20.4299 11.3852 20.4299 10.9806C20.4299 8.91307 19.6248 6.96929 18.1628 5.50731C16.7008 4.04533 14.757 3.24023 12.6895 3.24023Z" fill="#E87383"/>
<path d="M15.827 10.9811C15.827 11.3855 16.1551 11.7136 16.5595 11.7136C16.964 11.7136 17.2919 11.3855 17.2919 10.9811C17.2919 8.44342 15.2272 6.37891 12.6895 6.37891C12.2849 6.37891 11.957 6.70678 11.957 7.11133C11.957 7.51588 12.2849 7.84375 12.6895 7.84375C14.4196 7.84375 15.827 9.25118 15.827 10.9811Z" fill="#E87383"/>
</svg>
