<svg width="25" height="25" viewBox="0 0 25 25" fill="none" xmlns="http://www.w3.org/2000/svg">
<g clip-path="url(#clip0_132:415)">
<path d="M12.651 20.3125C16.2677 20.3125 14.9781 18.0229 15.2573 17.3646C15.2531 16.8729 15.249 16.4 15.2656 16.1125C15.4948 16.1771 16.0354 16.451 17.1521 17.5365C18.876 19.276 19.3167 20.3125 20.7094 20.3125H23.2729C24.0854 20.3125 24.5083 19.976 24.7198 19.6937C24.924 19.4208 25.124 18.9417 24.9052 18.1958C24.3333 16.4 20.9979 13.299 20.7906 12.9719C20.8219 12.9115 20.8719 12.8312 20.8979 12.7896H20.8958C21.5542 11.9198 24.0667 8.15521 24.4365 6.64896C24.4375 6.64687 24.4385 6.64375 24.4385 6.64062C24.6385 5.95312 24.4552 5.50729 24.2656 5.25521C23.9802 4.87813 23.526 4.6875 22.9125 4.6875H20.349C19.4906 4.6875 18.8396 5.11979 18.5104 5.90833C17.9594 7.30937 16.4115 10.1906 15.251 11.2104C15.2156 9.76562 15.2396 8.6625 15.2583 7.84271C15.2958 6.24375 15.4167 4.6875 13.7573 4.6875H9.72812C8.68854 4.6875 7.69375 5.82292 8.77083 7.17083C9.7125 8.35208 9.10937 9.01042 9.3125 12.2875C8.52083 11.4385 7.1125 9.14583 6.11667 6.21562C5.8375 5.42292 5.41458 4.68854 4.22396 4.68854H1.66042C0.620833 4.68854 0 5.25521 0 6.20417C0 8.33542 4.71771 20.3125 12.651 20.3125V20.3125ZM4.22396 6.25104C4.45 6.25104 4.47292 6.25104 4.64062 6.72708C5.66042 9.73021 7.94792 14.174 9.61875 14.174C10.874 14.174 10.874 12.8875 10.874 12.4031L10.8729 8.54687C10.8042 7.27083 10.3396 6.63542 10.0344 6.25L13.6885 6.25417C13.6906 6.27188 13.6677 10.5198 13.699 11.549C13.699 13.0104 14.8594 13.8479 16.6708 12.0146C18.5823 9.85729 19.9042 6.63229 19.9573 6.50104C20.0354 6.31354 20.1031 6.25 20.349 6.25H22.9125H22.9229C22.9219 6.25312 22.9219 6.25625 22.9208 6.25937C22.6865 7.35312 20.3729 10.8385 19.599 11.9208C19.5865 11.9375 19.575 11.9552 19.5635 11.9729C19.2229 12.5292 18.9458 13.1437 19.6104 14.0083H19.6115C19.6719 14.0812 19.8292 14.2521 20.0583 14.4896C20.7708 15.225 23.2146 17.7396 23.4312 18.7396C23.2875 18.7625 23.1312 18.7458 20.7094 18.751C20.1937 18.751 19.7906 17.9802 18.2521 16.4281C16.8687 15.0823 15.9708 14.5323 15.1531 14.5323C13.5656 14.5323 13.6812 15.8208 13.6958 17.3792C13.701 19.0687 13.6906 18.5344 13.7021 18.6406C13.6094 18.6771 13.3437 18.75 12.651 18.75C6.04167 18.75 1.7375 8.25938 1.57187 6.25417C1.62917 6.24896 2.41771 6.25208 4.22396 6.25104V6.25104Z" fill="white"/>
</g>
<defs>
<clipPath id="clip0_132:415">
<rect width="25" height="25" fill="white"/>
</clipPath>
</defs>
</svg>
