<svg width="25" height="25" viewBox="0 0 25 25" fill="none" xmlns="http://www.w3.org/2000/svg">
<g clip-path="url(#clip0_132:420)">
<path d="M21.4491 3.55091C19.1591 1.26095 16.1152 0 12.8765 0C12.8763 0 12.8756 0 12.8754 0C11.2736 0.000190735 9.7126 0.310326 8.23613 0.922012C6.75946 1.5337 5.43652 2.41814 4.30374 3.55091C2.01397 5.84068 0.753024 8.88519 0.753024 12.1235C0.753024 14.0547 1.21899 15.9739 2.1019 17.6838L0.0640898 23.5054C-0.0795336 23.9161 0.0221281 24.3624 0.329974 24.67C0.545314 24.8856 0.828746 25 1.12019 25C1.24512 25 1.37139 24.979 1.4946 24.9359L7.31621 22.8983C9.02615 23.7812 10.9453 24.2472 12.8765 24.2472C16.1148 24.2472 19.1591 22.986 21.4491 20.6963C23.7389 18.4065 25 15.362 25 12.1237C25 8.88519 23.7391 5.84068 21.4491 3.55091V3.55091ZM20.4123 19.6594C18.3994 21.6724 15.723 22.7808 12.8765 22.7808C11.1351 22.7808 9.40514 22.3501 7.87354 21.5349C7.59583 21.3873 7.26757 21.3619 6.97289 21.4651L1.68381 23.3162L3.53508 18.0271C3.63827 17.732 3.61271 17.4038 3.46508 17.1263C2.65007 15.5951 2.2192 13.8651 2.2192 12.1235C2.2192 9.27696 3.32775 6.60057 5.34058 4.58775C7.35321 2.57511 10.0292 1.46656 12.8756 1.46618H12.8765C15.7232 1.46618 18.3994 2.57473 20.4123 4.58775C22.4253 6.60057 23.5338 9.27677 23.5338 12.1235C23.5338 14.9702 22.4253 17.6466 20.4123 19.6594V19.6594Z" fill="#E87383"/>
<path d="M17.3822 13.2072C16.8245 12.6495 15.9169 12.6495 15.3592 13.2072L14.7493 13.8172C13.2346 12.9919 12.009 11.7662 11.1835 10.2516L11.7934 9.64161C12.3513 9.0839 12.3513 8.17638 11.7934 7.61868L10.1497 5.97492C9.59199 5.41721 8.68447 5.41721 8.12676 5.97492L6.81183 7.28985C6.05862 8.04306 6.02105 9.33796 6.70598 10.9361C7.30069 12.3237 8.38902 13.8488 9.77051 15.2303C11.152 16.6118 12.6771 17.7002 14.0647 18.2949C14.824 18.6203 15.5147 18.7826 16.1115 18.7826C16.7709 18.7826 17.3156 18.5844 17.711 18.189L19.0259 16.8739V16.8741C19.2962 16.6038 19.445 16.2447 19.445 15.8626C19.445 15.4804 19.2962 15.1212 19.0259 14.8511L17.3822 13.2072ZM16.6742 17.1522C16.4592 17.3671 15.7981 17.4425 14.6425 16.9473C13.4221 16.4243 12.0601 15.4462 10.8073 14.1935C9.5546 12.9407 8.5767 11.5789 8.05371 10.3586C7.55837 9.20292 7.63371 8.54164 7.84867 8.32668L9.13842 7.03693L10.7314 8.63014L9.96792 9.39384C9.62269 9.73907 9.53934 10.2626 9.76079 10.6968C10.7646 12.6651 12.3357 14.2362 14.3041 15.2401C14.7384 15.4615 15.262 15.3783 15.6072 15.0329L16.3707 14.2694L17.9639 15.8626L16.6742 17.1522Z" fill="#E87383"/>
</g>
<defs>
<clipPath id="clip0_132:420">
<rect width="25" height="25" fill="white"/>
</clipPath>
</defs>
</svg>
