<svg width="25" height="25" viewBox="0 0 25 25" fill="none" xmlns="http://www.w3.org/2000/svg">
<g clip-path="url(#clip0_132:411)">
<path d="M16.3483 11.3764L10.8252 8.3544C10.5076 8.18064 10.1323 8.18713 9.82097 8.37157C9.50951 8.5562 9.32373 8.88236 9.32373 9.24437V15.2365C9.32373 15.5968 9.50836 15.9223 9.81773 16.1072C9.97928 16.2037 10.1584 16.2521 10.3379 16.2521C10.5023 16.2521 10.6671 16.2115 10.8187 16.1299L16.342 13.1599C16.6698 12.9835 16.8745 12.6427 16.876 12.2702C16.8774 11.8977 16.6752 11.5553 16.3483 11.3764V11.3764ZM10.7888 14.4827V10.0043L14.9166 12.2629L10.7888 14.4827Z" fill="white"/>
<path d="M24.816 7.49643L24.8149 7.48499C24.7937 7.28377 24.583 5.49392 23.7128 4.58354C22.7071 3.51276 21.5669 3.38268 21.0185 3.32031C20.9731 3.31516 20.9315 3.31039 20.8943 3.30543L20.8507 3.30086C17.5456 3.06053 12.5543 3.02773 12.5043 3.02753L12.5 3.02734L12.4956 3.02753C12.4456 3.02773 7.45427 3.06053 4.11948 3.30086L4.07542 3.30543C4.03994 3.3102 4.00084 3.31459 3.9583 3.31955C3.41624 3.38211 2.28824 3.51238 1.27964 4.62188C0.450895 5.52253 0.211333 7.27404 0.186729 7.47088L0.183868 7.49643C0.176429 7.58017 0 9.57353 0 11.5747V13.4454C0 15.4466 0.176429 17.44 0.183868 17.5239L0.185203 17.5365C0.206374 17.7345 0.416945 19.4915 1.28307 20.4023C2.22873 21.4372 3.42444 21.5741 4.0676 21.6478C4.16926 21.6594 4.2568 21.6693 4.3165 21.6798L4.3743 21.6878C6.28259 21.8694 12.2657 21.9588 12.5194 21.9625L12.527 21.9627L12.5347 21.9625C12.5846 21.9623 17.5758 21.9295 20.8808 21.6892L20.9245 21.6846C20.9663 21.679 21.0132 21.6741 21.0647 21.6687C21.6037 21.6115 22.7256 21.4927 23.7203 20.3983C24.549 19.4974 24.7888 17.7459 24.8132 17.5493L24.816 17.5237C24.8235 17.4398 25.0001 15.4466 25.0001 13.4454V11.5747C24.9999 9.57353 24.8235 7.58036 24.816 7.49643V7.49643ZM23.5349 13.4454C23.5349 15.2977 23.3731 17.2052 23.3579 17.3803C23.2957 17.8626 23.043 18.9708 22.6392 19.4097C22.0166 20.0946 21.3771 20.1625 20.9102 20.2119C20.8537 20.2178 20.8015 20.2236 20.7542 20.2295C17.5575 20.4606 12.7546 20.4961 12.5333 20.4974C12.2852 20.4938 6.38959 20.4036 4.53947 20.2318C4.44468 20.2163 4.34225 20.2045 4.2343 20.1923C3.6867 20.1295 2.93711 20.0437 2.36072 19.4097L2.34717 19.3952C1.95045 18.9819 1.70497 17.9456 1.6426 17.386C1.63097 17.2536 1.46503 15.3236 1.46503 13.4454V11.5747C1.46503 9.72459 1.62639 7.81916 1.64203 7.64044C1.71623 7.07224 1.97372 6.03122 2.36072 5.61046C3.00235 4.90474 3.67888 4.82654 4.12634 4.77485C4.16907 4.76989 4.20893 4.76531 4.24574 4.76054C7.48898 4.52823 12.3264 4.49371 12.5 4.49237C12.6735 4.49352 17.5092 4.52823 20.7236 4.76054C20.7631 4.7655 20.8062 4.77046 20.8526 4.7758C21.3128 4.82826 22.0084 4.9076 22.6468 5.58852L22.6527 5.59482C23.0495 6.00814 23.2949 7.06251 23.3573 7.63338C23.3684 7.75831 23.5349 9.69255 23.5349 11.5747V13.4454Z" fill="white"/>
</g>
<defs>
<clipPath id="clip0_132:411">
<rect width="25" height="24.9999" fill="white"/>
</clipPath>
</defs>
</svg>
